<svg xmlns="http://www.w3.org/2000/svg" xmlns:xlink="http://www.w3.org/1999/xlink" width="1366" height="290" viewBox="0 0 1366 290">
  <defs>
    <clipPath id="clip-path">
      <rect id="Rectangle_1438" data-name="Rectangle 1438" width="1366" height="290" transform="translate(0 1724)" fill="#001d3d"/>
    </clipPath>
  </defs>
  <g id="Mask_Group_116" data-name="Mask Group 116" transform="translate(0 -1724)" opacity="0.1" clip-path="url(#clip-path)" style="mix-blend-mode: luminosity;isolation: isolate">
    <g id="Layer_2" data-name="Layer 2" transform="translate(813.213 1724)">
      <g id="_ëîé_1" data-name="‘ëîé_1">
        <g id="Group_19210" data-name="Group 19210" opacity="0.4">
          <rect id="Rectangle_1350" data-name="Rectangle 1350" width="50.161" height="41.36" transform="translate(321.526 17.803)" fill="#b8c0c7"/>
          <rect id="Rectangle_1351" data-name="Rectangle 1351" width="50.161" height="41.36" transform="translate(296.445 17.803)" fill="#d4d5d9"/>
          <path id="Path_14647" data-name="Path 14647" d="M371.659,48.674h-7.95l.7-2.236-.7-1.6h7.95Z" fill="#677282"/>
          <path id="Path_14648" data-name="Path 14648" d="M346.606,30.605h-7.947l.7-2.239-.7-1.6h7.947Z" fill="#b8c0c7"/>
          <path id="Path_14649" data-name="Path 14649" d="M346.606,26.769h7.95l-.7,2.236.7,1.6h-7.95Z" fill="#677282"/>
          <path id="Path_14650" data-name="Path 14650" d="M296.445,49.118h7.947l-.7,2.239.7,1.6h-7.947Z" fill="#b8c0c7"/>
          <rect id="Rectangle_1352" data-name="Rectangle 1352" width="14.435" height="5.616" transform="translate(314.166 26.222) rotate(180)" fill="#e9e9e9"/>
          <rect id="Rectangle_1353" data-name="Rectangle 1353" width="50.161" height="41.36" transform="translate(410.111 17.803)" fill="#b8c0c7"/>
          <rect id="Rectangle_1354" data-name="Rectangle 1354" width="50.161" height="41.36" transform="translate(385.03 17.803)" fill="#d4d5d9"/>
          <path id="Path_14651" data-name="Path 14651" d="M460.244,48.674H452.3l.7-2.236-.7-1.6h7.947Z" fill="#677282"/>
          <path id="Path_14652" data-name="Path 14652" d="M435.191,30.605h-7.947l.7-2.239-.7-1.6h7.947Z" fill="#b8c0c7"/>
          <path id="Path_14653" data-name="Path 14653" d="M435.191,26.769h7.95l-.7,2.236.7,1.6h-7.95Z" fill="#677282"/>
          <path id="Path_14654" data-name="Path 14654" d="M385.03,49.118h7.947l-.7,2.239.7,1.6H385.03Z" fill="#b8c0c7"/>
          <rect id="Rectangle_1355" data-name="Rectangle 1355" width="14.435" height="5.616" transform="translate(402.751 26.222) rotate(180)" fill="#e9e9e9"/>
          <rect id="Rectangle_1356" data-name="Rectangle 1356" width="19.293" height="230.124" transform="translate(492.718 289.287) rotate(180)" fill="#b8c0c7"/>
          <rect id="Rectangle_1357" data-name="Rectangle 1357" width="16.038" height="230.124" transform="translate(281.196 289.287) rotate(180)" fill="#b8c0c7"/>
          <rect id="Rectangle_1358" data-name="Rectangle 1358" width="208.27" height="5.989" transform="translate(473.428 65.156) rotate(180)" fill="#b8c0c7"/>
          <rect id="Rectangle_1359" data-name="Rectangle 1359" width="208.27" height="5.989" transform="translate(473.428 174.224) rotate(180)" fill="#b8c0c7"/>
          <rect id="Rectangle_1360" data-name="Rectangle 1360" width="208.27" height="5.989" transform="translate(473.428 265.706) rotate(180)" fill="#b8c0c7"/>
          <rect id="Rectangle_1361" data-name="Rectangle 1361" width="51.862" height="42.761" transform="translate(316.353 125.473)" fill="#b8c0c7"/>
          <rect id="Rectangle_1362" data-name="Rectangle 1362" width="51.862" height="42.761" transform="translate(290.425 125.473)" fill="#d4d5d9"/>
          <path id="Path_14655" data-name="Path 14655" d="M368.184,157.39h-8.216l.722-2.31-.722-1.655h8.216Z" fill="#677282"/>
          <path id="Path_14656" data-name="Path 14656" d="M342.284,138.709h-8.216l.722-2.313-.722-1.652h8.216Z" fill="#b8c0c7"/>
          <path id="Path_14657" data-name="Path 14657" d="M342.284,134.745H350.5l-.725,2.313.725,1.652h-8.219Z" fill="#677282"/>
          <path id="Path_14658" data-name="Path 14658" d="M290.422,157.852h8.219l-.725,2.313.725,1.652h-8.219Z" fill="#b8c0c7"/>
          <rect id="Rectangle_1363" data-name="Rectangle 1363" width="14.925" height="5.806" transform="translate(308.742 134.182) rotate(180)" fill="#e9e9e9"/>
          <rect id="Rectangle_1364" data-name="Rectangle 1364" width="51.862" height="42.761" transform="translate(382.907 125.473)" fill="#b8c0c7"/>
          <rect id="Rectangle_1365" data-name="Rectangle 1365" width="51.862" height="42.761" transform="translate(356.979 125.473)" fill="#d4d5d9"/>
          <path id="Path_14659" data-name="Path 14659" d="M434.738,157.39h-8.216l.722-2.31-.722-1.655h8.216Z" fill="#677282"/>
          <path id="Path_14660" data-name="Path 14660" d="M408.838,138.709h-8.216l.722-2.313-.722-1.652h8.216Z" fill="#b8c0c7"/>
          <path id="Path_14661" data-name="Path 14661" d="M408.838,134.745h8.219l-.725,2.313.725,1.652h-8.219Z" fill="#677282"/>
          <path id="Path_14662" data-name="Path 14662" d="M356.976,157.852H365.2l-.725,2.313.725,1.652h-8.219Z" fill="#b8c0c7"/>
          <path id="Path_14663" data-name="Path 14663" d="M356.976,134.179H365.2l-.725,2.313.725,1.652h-8.219Z" fill="#b8c0c7"/>
          <rect id="Rectangle_1366" data-name="Rectangle 1366" width="24.325" height="9.464" transform="translate(403.601 163.658) rotate(180)" fill="#e9e9e9"/>
          <rect id="Rectangle_1367" data-name="Rectangle 1367" width="44.823" height="36.959" transform="translate(323.392 222.62)" fill="#b8c0c7"/>
          <rect id="Rectangle_1368" data-name="Rectangle 1368" width="44.823" height="36.959" transform="translate(300.979 222.62)" fill="#d4d5d9"/>
          <path id="Path_14664" data-name="Path 14664" d="M368.187,250.206h-7.1l.627-2-.627-1.429h7.1Z" fill="#677282"/>
          <path id="Path_14665" data-name="Path 14665" d="M345.8,234.057h-7.1l.627-2-.627-1.429h7.1Z" fill="#b8c0c7"/>
          <path id="Path_14666" data-name="Path 14666" d="M345.8,230.631h7.1l-.624,2,.624,1.429h-7.1Z" fill="#677282"/>
          <path id="Path_14667" data-name="Path 14667" d="M300.979,250.6h7.1l-.627,2,.627,1.429h-7.1Z" fill="#b8c0c7"/>
          <rect id="Rectangle_1369" data-name="Rectangle 1369" width="12.9" height="5.017" transform="translate(316.812 230.142) rotate(180)" fill="#fff"/>
          <rect id="Rectangle_1370" data-name="Rectangle 1370" width="51.862" height="42.761" transform="translate(401.484 216.817)" fill="#b8c0c7"/>
          <rect id="Rectangle_1371" data-name="Rectangle 1371" width="51.862" height="42.761" transform="translate(375.553 216.817)" fill="#d4d5d9"/>
          <path id="Path_14668" data-name="Path 14668" d="M453.316,248.734H445.1l.725-2.313-.725-1.652h8.219Z" fill="#384152"/>
          <path id="Path_14669" data-name="Path 14669" d="M427.415,230.05H419.2l.725-2.313-.725-1.652h8.219Z" fill="#b8c0c7"/>
          <path id="Path_14670" data-name="Path 14670" d="M427.415,226.086h8.216l-.722,2.313.722,1.652h-8.216Z" fill="#384152"/>
          <path id="Path_14671" data-name="Path 14671" d="M375.553,249.193h8.216l-.722,2.313.722,1.652h-8.216Z" fill="#618dc1"/>
          <rect id="Rectangle_1372" data-name="Rectangle 1372" width="14.925" height="5.806" transform="translate(393.874 225.52) rotate(180)" fill="#e9e9e9"/>
          <rect id="Rectangle_1373" data-name="Rectangle 1373" width="39.647" height="32.691" transform="translate(399.101 92.586)" fill="#b8c0c7"/>
          <rect id="Rectangle_1374" data-name="Rectangle 1374" width="39.647" height="32.691" transform="translate(379.276 92.586)" fill="#d4d5d9"/>
          <path id="Path_14672" data-name="Path 14672" d="M438.724,116.987h-6.283l.554-1.768-.554-1.263h6.283Z" fill="#677282"/>
          <path id="Path_14673" data-name="Path 14673" d="M418.924,102.705h-6.28l.554-1.768-.554-1.263h6.28Z" fill="#b8c0c7"/>
          <path id="Path_14674" data-name="Path 14674" d="M418.924,99.674h6.283l-.554,1.768.554,1.263h-6.283Z" fill="#677282"/>
          <path id="Path_14675" data-name="Path 14675" d="M379.276,117.339h6.283l-.554,1.768.554,1.263h-6.283Z" fill="#b8c0c7"/>
          <rect id="Rectangle_1375" data-name="Rectangle 1375" width="11.41" height="4.439" transform="translate(393.283 99.242) rotate(180)" fill="#e9e9e9"/>
          <rect id="Rectangle_1376" data-name="Rectangle 1376" width="39.647" height="32.691" transform="translate(328.265 92.586)" fill="#b8c0c7"/>
          <rect id="Rectangle_1377" data-name="Rectangle 1377" width="39.647" height="32.691" transform="translate(308.44 92.586)" fill="#d4d5d9"/>
          <path id="Path_14676" data-name="Path 14676" d="M367.888,116.987h-6.28l.551-1.768-.551-1.263h6.28Z" fill="#677282"/>
          <path id="Path_14677" data-name="Path 14677" d="M348.087,102.705H341.8l.554-1.768-.554-1.263h6.283Z" fill="#b8c0c7"/>
          <path id="Path_14678" data-name="Path 14678" d="M348.087,99.674h6.283l-.554,1.768.554,1.263h-6.283Z" fill="#677282"/>
          <path id="Path_14679" data-name="Path 14679" d="M308.44,117.339h6.283l-.554,1.768.554,1.263H308.44Z" fill="#b8c0c7"/>
          <rect id="Rectangle_1378" data-name="Rectangle 1378" width="11.41" height="4.439" transform="translate(322.447 99.242) rotate(180)" fill="#e9e9e9"/>
        </g>
        <path id="Path_14680" data-name="Path 14680" d="M50.384,225.376l.985-.291c-2.606-8.871,2.123-18.079,10.544-20.556l21.211-6.24a8.5,8.5,0,0,0,5.466-10.661c-4.368-14.842,3.558-30.284,17.669-34.447l-.306-1.037C91.3,156.454,83.07,172.5,87.6,187.934a7.426,7.426,0,0,1-4.784,9.33l-21.208,6.228C52.645,206.129,47.61,215.964,50.384,225.376Z" fill="#384152"/>
        <path id="Path_14681" data-name="Path 14681" d="M52.526,232.656l.988-.306c-2.609-8.871,2.123-18.082,10.541-20.559l21.211-6.228a8.484,8.484,0,0,0,5.466-10.657c-4.368-14.842,3.558-30.284,17.669-34.447l-.306-1.04c-14.652,4.313-22.884,20.364-18.354,35.79a7.429,7.429,0,0,1-4.787,9.33l-21.2,6.225C54.786,213.409,49.751,223.226,52.526,232.656Z" fill="#384152"/>
        <rect id="Rectangle_1379" data-name="Rectangle 1379" width="44.658" height="36.824" transform="translate(207.371 161.939) rotate(180)" fill="#2b6eb2"/>
        <rect id="Rectangle_1380" data-name="Rectangle 1380" width="44.658" height="36.824" transform="translate(229.701 161.939) rotate(180)" fill="#43a1f6"/>
        <path id="Path_14682" data-name="Path 14682" d="M162.741,152.6h7.075l-.621-1.991.621-1.422h-7.075Z" fill="#de6b4d"/>
        <path id="Path_14683" data-name="Path 14683" d="M185.044,136.513h7.075l-.621-1.991.621-1.422h-7.075Z" fill="#ee805f"/>
        <path id="Path_14684" data-name="Path 14684" d="M185.044,133.1h-7.075l.621,1.991-.621,1.422h7.075Z" fill="#de6b4d"/>
        <path id="Path_14685" data-name="Path 14685" d="M229.7,152.995h-7.075l.624,1.994-.624,1.422H229.7Z" fill="#ee805f"/>
        <rect id="Rectangle_1381" data-name="Rectangle 1381" width="12.851" height="4.998" transform="translate(213.926 127.611)" fill="#d4d5d9"/>
        <path id="Path_14686" data-name="Path 14686" d="M161.11,24.983c6.406,0,13.12-1.016,16.846-3.166,5.928-3.42,13.459-1.97,13.524-1.955l.18-.918c-.306-.067-7.932-1.529-14.169,2.059-6.145,3.548-21.413,3.863-28.332,1.508-6.809-2.322-15.855-4.8-19.617-4.8v.918c3.671,0,12.579,2.469,19.317,4.763A40.613,40.613,0,0,0,161.11,24.983Z" fill="#384152"/>
        <rect id="Rectangle_1382" data-name="Rectangle 1382" width="2.93" height="19.106" transform="translate(200.849 110.279) rotate(180)" fill="#384152"/>
        <rect id="Rectangle_1383" data-name="Rectangle 1383" width="2.93" height="19.106" transform="translate(195.049 110.279) rotate(180)" fill="#384152"/>
        <path id="Path_14687" data-name="Path 14687" d="M161.11,22.924c6.406,0,13.12-1.016,16.846-3.166,5.928-3.42,13.459-1.97,13.524-1.955l.18-.918c-.306-.064-7.932-1.529-14.169,2.062-6.145,3.545-21.413,3.86-28.332,1.508-6.809-2.319-15.855-4.815-19.617-4.815v.918c3.671,0,12.579,2.469,19.317,4.766A40.306,40.306,0,0,0,161.11,22.924Z" fill="#384152"/>
        <path id="Path_14688" data-name="Path 14688" d="M99.435,134.595h1.224v-.918H99.435a10.223,10.223,0,0,1-10.214-10.214V17.724A10.223,10.223,0,0,1,99.435,7.51h9.015V6.592H99.435A11.156,11.156,0,0,0,88.291,17.733V123.46a11.156,11.156,0,0,0,11.144,11.135Z" fill="#384152"/>
        <path id="Path_14689" data-name="Path 14689" d="M100.64,125.647v-.918a7.112,7.112,0,0,1-7.1-7.1V19.33a6.9,6.9,0,0,1,6.889-6.889h7.146v-.918h-7.137a7.825,7.825,0,0,0-7.816,7.816v98.279A8.042,8.042,0,0,0,100.64,125.647Z" fill="#384152"/>
        <rect id="Rectangle_1384" data-name="Rectangle 1384" width="38.338" height="69.564" rx="6.519" transform="translate(216.062 95.419) rotate(180)" fill="#b8c0c7"/>
        <circle id="Ellipse_28" data-name="Ellipse 28" cx="3.337" cy="3.337" r="3.337" transform="matrix(0.987, -0.16, 0.16, 0.987, 201.723, 32.982)" fill="#dde7fe"/>
        <path id="Path_14690" data-name="Path 14690" d="M208.888,83.32a3.337,3.337,0,1,0-3.325,3.337A3.337,3.337,0,0,0,208.888,83.32Z" fill="#dde7fe"/>
        <path id="Path_14691" data-name="Path 14691" d="M191.568,35.75a3.337,3.337,0,1,0-3.334,3.337,3.337,3.337,0,0,0,3.334-3.337Z" fill="#dde7fe"/>
        <path id="Path_14692" data-name="Path 14692" d="M191.568,83.32a3.337,3.337,0,1,0-3.334,3.337,3.337,3.337,0,0,0,3.334-3.337Z" fill="#dde7fe"/>
        <path id="Path_14693" data-name="Path 14693" d="M182.654,113.561a4.845,4.845,0,0,0,.437,1.988h26.2a4.845,4.845,0,0,0,.437-1.988c0-4.341-6.063-7.862-13.539-7.862S182.654,109.221,182.654,113.561Z" fill="#43a1f6"/>
        <path id="Path_14694" data-name="Path 14694" d="M159.96,122.524v35.625a8.691,8.691,0,0,0,3.753,7.152l10.862,7.488a1.707,1.707,0,0,0,2.38-.437h0a1.71,1.71,0,0,0-.437-2.383l-10.859-7.488a5.261,5.261,0,0,1-2.273-4.332V122.524a6.974,6.974,0,0,1,6.974-6.974h51.666A6.974,6.974,0,0,1,229,122.524v35.4a5.234,5.234,0,0,1-2.475,4.463l-12.135,7.586a1.713,1.713,0,0,0-.544,2.358h0a1.71,1.71,0,0,0,2.358.544L228.34,165.3a8.635,8.635,0,0,0,4.084-7.369v-35.4a10.4,10.4,0,0,0-10.4-10.4H170.36A10.4,10.4,0,0,0,159.96,122.524Z" fill="#384152"/>
        <rect id="Rectangle_1385" data-name="Rectangle 1385" width="71.192" height="2.141" transform="translate(197.928 6.583) rotate(180)" fill="#384152"/>
        <rect id="Rectangle_1386" data-name="Rectangle 1386" width="71.192" height="2.141" transform="translate(197.928 12.585) rotate(180)" fill="#384152"/>
        <path id="Path_14695" data-name="Path 14695" d="M187.662,25.851h21.226V10.96A10.96,10.96,0,0,0,197.916,0h0a10.96,10.96,0,0,0-10.957,10.96v14.2a.691.691,0,0,0,.7.688Z" fill="#43a1f6"/>
        <rect id="Rectangle_1387" data-name="Rectangle 1387" width="29.253" height="211.534" rx="9.217" transform="translate(132.334 211.534) rotate(180)" fill="#b8c0c7"/>
        <path id="Path_14696" data-name="Path 14696" d="M119.407,10.278a1.7,1.7,0,1,0-.5,1.2A1.7,1.7,0,0,0,119.407,10.278Z" fill="#384152"/>
        <rect id="Rectangle_1388" data-name="Rectangle 1388" width="35.178" height="141.104" rx="4.503" transform="translate(135.828 170.911) rotate(180)" fill="#677282"/>
        <path id="Path_14697" data-name="Path 14697" d="M102.962,198.482h32.856v19.391a4.356,4.356,0,0,1-4.356,4.356h-28.51a4.356,4.356,0,0,1-4.356-4.356V202.838a4.356,4.356,0,0,1,4.365-4.356Z" transform="translate(234.431 420.71) rotate(180)" fill="#677282"/>
        <circle id="Ellipse_29" data-name="Ellipse 29" cx="6.479" cy="6.479" r="6.479" transform="matrix(1, -0.028, 0.028, 1, 191.27, 4.147)" fill="#43a1f6"/>
        <path id="Path_14698" data-name="Path 14698" d="M191.25,10.443a6.681,6.681,0,1,1,6.665,6.687,6.681,6.681,0,0,1-6.665-6.687Zm.4,0a6.28,6.28,0,1,0,6.265-6.28,6.28,6.28,0,0,0-6.265,6.28Z" fill="#384152"/>
        <circle id="Ellipse_30" data-name="Ellipse 30" cx="3.955" cy="3.955" r="3.955" transform="translate(193.173 7.51) rotate(-13.28)" fill="#2b6eb2"/>
        <path id="Path_14699" data-name="Path 14699" d="M38.421,269.037H381.5a23.4,23.4,0,0,0,23.4-23.4v0a23.4,23.4,0,0,0-23.4-23.4H38.421a23.4,23.4,0,0,0-23.4,23.4h0A23.4,23.4,0,0,0,38.421,269.037Z" fill="#b8c0c7"/>
        <path id="Path_14700" data-name="Path 14700" d="M15.017,245.636a23.4,23.4,0,0,0,23.407,23.407H96.593a2.258,2.258,0,0,0,2.258-2.258v-42.3a2.255,2.255,0,0,0-2.258-2.258H38.421a23.4,23.4,0,0,0-23.4,23.407Z" fill="#b8c0c7"/>
        <path id="Path_14701" data-name="Path 14701" d="M31.813,268.15c.086.306.177.59.269.89q1.175,3.781,2.594,7.681c.128.361.263.725.4,1.086q1.722,4.644,3.811,9.455H72.77l311.064.156V268.15Z" fill="#d4d5d9"/>
        <path id="Path_14702" data-name="Path 14702" d="M280.636,243.917l.918,2.521.021.061a.636.636,0,0,0,.753.4l2.175-.532.11-.018a.639.639,0,0,1,.612.343,11.135,11.135,0,0,0,2.753,3.447,1.01,1.01,0,0,1,.119.135.655.655,0,0,1,.043.636l-.829,1.679a.645.645,0,0,0,.07.67.664.664,0,0,0,.165.153l2.31,1.465a.652.652,0,0,0,.872-.159l1.505-1.979a.63.63,0,0,1,.633-.232c.352.067.7.125,1.052.165a11.623,11.623,0,0,0,1.979.04h0a.649.649,0,0,1,.636.37l1.065,2.291.052.113a.63.63,0,0,0,.789.33l2.579-.939a.664.664,0,0,0,.413-.774l-.593-2.423a.633.633,0,0,1,.278-.691,11.287,11.287,0,0,0,2.591-2.291.636.636,0,0,1,.774-.162l1.988.976a.652.652,0,0,0,.841-.239l1.474-2.322a.612.612,0,0,0-.147-.829l-2.328-1.774a.664.664,0,0,1-.248-.642c.061-.306.1-.612.141-.918a11.292,11.292,0,0,0,.055-1.725.612.612,0,0,1,.361-.612l2.753-1.276a.646.646,0,0,0,.333-.8l-.942-2.585a.639.639,0,0,0-.661-.419h-.089l-2.689.658a.627.627,0,0,1-.664-.229.387.387,0,0,1-.04-.058c-.034-.055-.067-.11-.11-.168a11.46,11.46,0,0,0-1.484-1.866.612.612,0,0,1-.116-.722l1.028-2.1a.648.648,0,0,0-.236-.838l-.511-.312-1.8-1.135a.646.646,0,0,0-.86.153l-1.481,1.949a.612.612,0,0,1-.679.22,11.234,11.234,0,0,0-2.056-.419,10.877,10.877,0,0,0-1.572-.058l-.22-.483-.918-1.97a.612.612,0,0,0-.612-.361.486.486,0,0,0-.162.04l-2.6.936a.645.645,0,0,0-.4.756l.407,1.652a.639.639,0,0,1-.306.716,11.23,11.23,0,0,0-2.827,2.141.612.612,0,0,1-.737.132l-2.511-1.224a.612.612,0,0,0-.792.223l-1.487,2.349a.612.612,0,0,0,.147.835l2.42,1.835a.633.633,0,0,1,.232.679,10.48,10.48,0,0,0-.306,1.689q-.05.459-.064.918a.645.645,0,0,1-.367.563l-2.64,1.224a.652.652,0,0,0-.373.829Zm17.8-7.4.251.153a5.876,5.876,0,0,1,2.01,2.5,7.454,7.454,0,0,1,.358,1.346,6.029,6.029,0,0,1-7.259,6.944,6.959,6.959,0,0,1-2.166-.918,3.7,3.7,0,0,1-.474-.352,6.067,6.067,0,0,1,7.28-9.669Z" fill="#677282"/>
        <path id="Path_14703" data-name="Path 14703" d="M262.864,255.048l.661,1.814.018.043a.459.459,0,0,0,.538.288l1.566-.382a.334.334,0,0,1,.076,0,.459.459,0,0,1,.434.242,8.024,8.024,0,0,0,1.985,2.484.416.416,0,0,1,.086.095.471.471,0,0,1,.034.459l-.612,1.208a.462.462,0,0,0,.049.48.588.588,0,0,0,.119.11l1.664,1.055a.468.468,0,0,0,.612-.113l1.083-1.425a.447.447,0,0,1,.459-.165c.251.046.5.089.756.116a7.9,7.9,0,0,0,1.419.028h0a.462.462,0,0,1,.456.269l.768,1.646.04.086a.447.447,0,0,0,.563.233l1.857-.673a.477.477,0,0,0,.306-.557l-.4-1.762a.459.459,0,0,1,.2-.5,8.1,8.1,0,0,0,1.863-1.646.459.459,0,0,1,.557-.116l1.432.7a.462.462,0,0,0,.612-.171l1.061-1.67a.447.447,0,0,0-.107-.6l-1.67-1.276a.471.471,0,0,1-.18-.462c.043-.214.076-.434.1-.658A8.45,8.45,0,0,0,281.3,253a.45.45,0,0,1,.26-.434l1.982-.918a.465.465,0,0,0,.239-.578l-.676-1.86a.465.465,0,0,0-.474-.306h-.067l-1.933.471a.456.456,0,0,1-.477-.165.106.106,0,0,1-.024-.04c-.028-.043-.052-.083-.083-.122a8.029,8.029,0,0,0-1.071-1.343.444.444,0,0,1-.08-.517l.74-1.511a.471.471,0,0,0-.171-.612l-.367-.239-1.294-.817a.465.465,0,0,0-.612.113l-1.064,1.4a.447.447,0,0,1-.486.156,8.086,8.086,0,0,0-1.481-.306,8.274,8.274,0,0,0-1.132-.043l-.171-.312L272.2,243.6a.447.447,0,0,0-.45-.257.337.337,0,0,0-.119.028l-1.866.673a.462.462,0,0,0-.288.541l.306,1.193a.462.462,0,0,1-.226.511,8.035,8.035,0,0,0-2.04,1.529.45.45,0,0,1-.526.095l-1.8-.89a.453.453,0,0,0-.572.162l-1.071,1.689a.45.45,0,0,0,.11.612l1.737,1.328a.459.459,0,0,1,.165.489,8.082,8.082,0,0,0-.226,1.224c-.021.226-.04.45-.043.673a.462.462,0,0,1-.266.4l-1.9.881a.465.465,0,0,0-.263.56Zm12.8-5.326c.058.04.119.076.181.113a4.234,4.234,0,0,1,1.444,1.8,5.132,5.132,0,0,1,.254.967,4.335,4.335,0,0,1-5.219,5,5,5,0,0,1-1.557-.655,2.2,2.2,0,0,1-.34-.251,4.368,4.368,0,0,1,5.237-6.965Z" fill="#677282"/>
        <path id="Path_14704" data-name="Path 14704" d="M179.387,243.917l.918,2.521.021.061a.633.633,0,0,0,.749.4l2.178-.532a.612.612,0,0,1,.1-.018.633.633,0,0,1,.612.343,11.226,11.226,0,0,0,2.753,3.447.547.547,0,0,1,.119.135.639.639,0,0,1,.043.636l-.826,1.679a.652.652,0,0,0,.067.67.793.793,0,0,0,.165.153l2.313,1.465a.652.652,0,0,0,.872-.159l1.5-1.979a.633.633,0,0,1,.636-.232c.346.067.694.125,1.052.165a11.547,11.547,0,0,0,1.973.04h0a.636.636,0,0,1,.63.37l1.068,2.291.055.113a.63.63,0,0,0,.789.33l2.576-.939a.661.661,0,0,0,.413-.774l-.593-2.423a.633.633,0,0,1,.278-.691,11.208,11.208,0,0,0,2.588-2.291.642.642,0,0,1,.777-.162l1.988.976a.652.652,0,0,0,.841-.239l1.474-2.322a.612.612,0,0,0-.15-.829l-2.325-1.774a.655.655,0,0,1-.245-.642c.055-.306.1-.612.135-.918a11.292,11.292,0,0,0,.058-1.725.612.612,0,0,1,.361-.612l2.753-1.276a.639.639,0,0,0,.33-.8l-.939-2.585a.642.642,0,0,0-.661-.419h-.092l-2.686.658a.63.63,0,0,1-.664-.229.386.386,0,0,1-.04-.058c-.034-.055-.067-.11-.11-.168a11.012,11.012,0,0,0-1.487-1.866.612.612,0,0,1-.113-.722l1.031-2.1a.652.652,0,0,0-.242-.838l-.5-.312-1.8-1.135a.642.642,0,0,0-.856.153l-1.484,1.949a.612.612,0,0,1-.679.22,11.233,11.233,0,0,0-2.056-.419,10.877,10.877,0,0,0-1.572-.058l-.22-.483-.918-1.97a.612.612,0,0,0-.627-.361.486.486,0,0,0-.159.04l-2.6.936a.648.648,0,0,0-.4.756l.41,1.652a.649.649,0,0,1-.306.716,11.261,11.261,0,0,0-2.833,2.141.612.612,0,0,1-.731.132l-2.514-1.224a.612.612,0,0,0-.792.223l-1.487,2.349a.612.612,0,0,0,.15.835l2.42,1.835a.636.636,0,0,1,.229.679,10.832,10.832,0,0,0-.306,1.689c-.034.306-.055.612-.061.918a.651.651,0,0,1-.367.563l-2.64,1.224a.655.655,0,0,0-.364.829Zm17.8-7.4.254.153a5.892,5.892,0,0,1,2.007,2.5,7.712,7.712,0,0,1,.358,1.346,6.029,6.029,0,0,1-7.259,6.944,7,7,0,0,1-2.169-.918,3.672,3.672,0,0,1-.471-.352,6.067,6.067,0,0,1,7.28-9.669Z" fill="#677282"/>
        <path id="Path_14705" data-name="Path 14705" d="M161.618,255.048l.658,1.814v.043a.462.462,0,0,0,.541.288l1.566-.382a.36.36,0,0,1,.076,0,.447.447,0,0,1,.431.242,8.125,8.125,0,0,0,1.988,2.484.52.52,0,0,1,.089.095.462.462,0,0,1,.028.459l-.587,1.2a.468.468,0,0,0,.049.48.462.462,0,0,0,.119.11l1.661,1.055a.471.471,0,0,0,.612-.113l1.086-1.425a.437.437,0,0,1,.453-.165c.251.046.5.089.759.116a7.916,7.916,0,0,0,1.422.027h0a.468.468,0,0,1,.456.269l.762,1.646.043.086a.45.45,0,0,0,.566.232l1.854-.673a.477.477,0,0,0,.306-.557l-.428-1.741a.468.468,0,0,1,.2-.5,8.036,8.036,0,0,0,1.863-1.646.462.462,0,0,1,.557-.116l1.432.7a.468.468,0,0,0,.612-.171l1.058-1.67a.45.45,0,0,0-.107-.6l-1.67-1.276a.471.471,0,0,1-.18-.462c.043-.214.076-.434.1-.658a8.05,8.05,0,0,0,.04-1.224.447.447,0,0,1,.263-.434l1.979-.918a.462.462,0,0,0,.239-.578l-.676-1.86a.465.465,0,0,0-.474-.306H181.3l-1.93.471a.459.459,0,0,1-.48-.165l-.028-.04a.759.759,0,0,0-.08-.122,8.336,8.336,0,0,0-1.068-1.343.44.44,0,0,1-.083-.517l.74-1.511a.468.468,0,0,0-.171-.612l-.37-.239-1.291-.817a.462.462,0,0,0-.612.113l-1.068,1.4a.45.45,0,0,1-.489.156,8.005,8.005,0,0,0-1.477-.306,8.26,8.26,0,0,0-1.129-.043l-.153-.321-.661-1.419a.447.447,0,0,0-.45-.257.305.305,0,0,0-.113.028l-1.869.673a.468.468,0,0,0-.291.541l.306,1.193a.459.459,0,0,1-.229.511,8,8,0,0,0-2.034,1.529.45.45,0,0,1-.526.095l-1.811-.89a.45.45,0,0,0-.569.162l-1.068,1.689a.45.45,0,0,0,.1.612l1.741,1.328a.45.45,0,0,1,.165.489,7.708,7.708,0,0,0-.226,1.224c-.024.226-.037.45-.046.673a.456.456,0,0,1-.263.4l-1.9.881A.465.465,0,0,0,161.618,255.048Zm12.8-5.326.18.113a4.188,4.188,0,0,1,1.444,1.8,5.165,5.165,0,0,1,.26.967,4.338,4.338,0,0,1-5.222,5,5,5,0,0,1-1.557-.655,2.753,2.753,0,0,1-.343-.251,4.369,4.369,0,0,1,5.237-6.965Z" fill="#677282"/>
        <path id="Path_14706" data-name="Path 14706" d="M235.985,241.375l.242,2.674v.061a.636.636,0,0,0,.612.581l2.239.04a.637.637,0,0,1,.11.015.612.612,0,0,1,.492.48,11.189,11.189,0,0,0,1.786,4.041.675.675,0,0,1,.083.162.639.639,0,0,1-.122.612l-1.224,1.41a.648.648,0,0,0-.107.67.831.831,0,0,0,.119.187l1.86,2.013a.652.652,0,0,0,.881.067l1.964-1.529a.612.612,0,0,1,.673-.064,8.789,8.789,0,0,0,.976.428,11.127,11.127,0,0,0,1.9.545h0a.645.645,0,0,1,.517.523l.441,2.487.024.125a.633.633,0,0,0,.679.517l2.732-.248a.655.655,0,0,0,.612-.639l.046-2.493a.636.636,0,0,1,.45-.612,11.18,11.18,0,0,0,3.09-1.551.645.645,0,0,1,.792.043l1.67,1.453a.655.655,0,0,0,.872,0l2.022-1.869a.612.612,0,0,0,.07-.838l-1.8-2.31a.661.661,0,0,1-.073-.685c.135-.275.257-.56.37-.85a11.433,11.433,0,0,0,.492-1.652.612.612,0,0,1,.5-.489l2.989-.529a.642.642,0,0,0,.529-.688l-.248-2.753a.642.642,0,0,0-.532-.572.438.438,0,0,0-.089,0l-2.768-.052a.633.633,0,0,1-.584-.395.394.394,0,0,1-.021-.064c-.021-.064-.037-.125-.064-.19a11.192,11.192,0,0,0-.957-2.187.612.612,0,0,1,.073-.722l1.529-1.771a.648.648,0,0,0-.018-.869l-.41-.45-1.447-1.557a.639.639,0,0,0-.866-.073l-1.936,1.505a.612.612,0,0,1-.71.04,11.182,11.182,0,0,0-3.386-1.392l-.089-.523-.382-2.141a.627.627,0,0,0-.511-.511.5.5,0,0,0-.165,0l-2.753.242a.652.652,0,0,0-.581.63l-.028,1.7a.645.645,0,0,1-.489.612,11.263,11.263,0,0,0-3.282,1.334.612.612,0,0,1-.74-.058l-2.117-1.835a.612.612,0,0,0-.82,0l-2.04,1.894a.612.612,0,0,0-.07.847l1.866,2.4a.642.642,0,0,1,.049.719,10.912,10.912,0,0,0-.737,1.548c-.11.306-.211.59-.306.887a.636.636,0,0,1-.5.45l-2.866.508a.652.652,0,0,0-.52.716Zm19.1-2.6c.067.073.135.141.2.217a5.873,5.873,0,0,1,1.3,2.924,7.559,7.559,0,0,1,0,1.392,6.032,6.032,0,0,1-8.8,4.852,6.819,6.819,0,0,1-1.86-1.432,3.96,3.96,0,0,1-.37-.459,6.074,6.074,0,0,1,9.523-7.494Z" fill="#677282"/>
        <path id="Path_14707" data-name="Path 14707" d="M21.128,262.928a24.457,24.457,0,0,1,17.292-41.749H381.5a24.456,24.456,0,1,1,0,48.911l-343.079,0a24.3,24.3,0,0,1-17.292-7.161Zm17.292-39.65a22.355,22.355,0,1,0,0,44.71H381.5a22.355,22.355,0,0,0,0-44.71Z" fill="#151f2c"/>
        <rect id="Rectangle_1389" data-name="Rectangle 1389" width="33.924" height="27.974" transform="translate(315.891 156.405)" fill="#2b6eb2"/>
        <rect id="Rectangle_1390" data-name="Rectangle 1390" width="33.924" height="27.974" transform="translate(298.929 156.405)" fill="#43a1f6"/>
        <path id="Path_14708" data-name="Path 14708" d="M349.8,177.283h-5.375l.474-1.511-.474-1.083H349.8Z" fill="#de6b4d"/>
        <path id="Path_14709" data-name="Path 14709" d="M332.856,165.062h-5.378l.474-1.514-.474-1.08h5.378Z" fill="#ee805f"/>
        <path id="Path_14710" data-name="Path 14710" d="M332.856,162.468h5.375l-.474,1.511.474,1.083h-5.375Z" fill="#de6b4d"/>
        <path id="Path_14711" data-name="Path 14711" d="M298.929,177.583H304.3l-.471,1.514.471,1.08h-5.375Z" fill="#ee805f"/>
        <rect id="Rectangle_1391" data-name="Rectangle 1391" width="9.761" height="3.799" transform="translate(310.914 162.098) rotate(180)" fill="#d4d5d9"/>
        <path id="Path_14712" data-name="Path 14712" d="M314.934,183.187c-.823-.535-2.689-1.71-2.774-1.429a1.239,1.239,0,0,0,.281.881c-1.113-.367-2.242-.593-4.861.015a1.976,1.976,0,0,0-1.266.918.872.872,0,0,0,.355,1.349c1.38.786.97.306,2.891,1.447s4.224,1.37,5.561.462l1.835-.376.11-3.034S315.992,183.324,314.934,183.187Z" fill="#de6b4d"/>
        <path id="Path_14713" data-name="Path 14713" d="M352.244,153.089c5.032,3.132,10.241-1.126,10.241-1.126a23.641,23.641,0,0,1-.749-11.847c.052-.275-8.776,3.365-9.042,3.423h0v.061l-.018.128c-.138,1.187-.232,2.368-.306,3.469C352.171,150.5,352.244,153.089,352.244,153.089Z" fill="#ee805f"/>
        <path id="Path_14714" data-name="Path 14714" d="M352.366,147.2a12.772,12.772,0,0,0,8.112-3.879c.306-.379-7.55.2-7.785.22h0v.061a.35.35,0,0,1-.018.128C352.525,144.916,352.431,146.1,352.366,147.2Z" fill="#de6b4d"/>
        <path id="Path_14715" data-name="Path 14715" d="M351.048,142.98s8.654,3.827,10.954-1.6,4.965-8.59-.462-11.26-7.387-1.061-8.6.563S348.855,141.845,351.048,142.98Z" fill="#ee805f"/>
        <path id="Path_14716" data-name="Path 14716" d="M361.4,142.854c.11.1,1.945,1.065,7.014-5.595a6.512,6.512,0,0,0,.722-5.925c-.939-2.447-5.4-5.09-9.235-6.589a7.742,7.742,0,0,0-4.83-.223,3,3,0,0,0-2.108,3.726c.725,2.539,2.524,4.1,4.8,4.029,1.529-.046,1.432,3.059,1.4,3.815s.024,1.373,1.945,1.065c1.646-.263.719,1.909.165,2.888a2.885,2.885,0,0,0-.392,1.581A1.789,1.789,0,0,0,361.4,142.854Z" fill="#384152"/>
        <path id="Path_14717" data-name="Path 14717" d="M374.648,287.406h5.583c1.169,0,2.469-1.172,2.793-3.313s2.729-3.316,3.249-5.072-2.141-4.224-2.141-4.224l-.444-.572-.465-.612-4.417,1.04s-.11,1.052-.177,2.392a30.108,30.108,0,0,0-.018,3.059c.128,2.34-.655,4.861-2.735,5.316S374.648,287.406,374.648,287.406Z" fill="#151f2c"/>
        <path id="Path_14718" data-name="Path 14718" d="M335.817,287.406H350.6a1.254,1.254,0,0,0,.306-.092c.988-.492.679-4.283.56-5.442-.021-.214-.04-.343-.04-.343s-5.2-4.157-5.913-.973l-.076.306h0c-.918,2.979-4.937,4.332-7.268,4.711A2.512,2.512,0,0,0,335.817,287.406Z" fill="#151f2c"/>
        <path id="Path_14719" data-name="Path 14719" d="M338.8,202.14s.789,9.853,1.719,21.694c1.26,16.087,2.778,35.845,2.927,39.589.26,6.5,1.3,16.9,1.3,16.9s2.469,2.472,7.409,1.429a170.091,170.091,0,0,0,5.659-30.547c.021-.257.04-.517.061-.774,1.169-15.989,2.989-49.653,2.989-49.653Z" fill="#43a1f6"/>
        <path id="Path_14720" data-name="Path 14720" d="M340.99,200.776c2.086.125,24.077-.707,24.083-1.933.018-4.283.918-11.187,2.028-19.577.2-1.563.364-3.117.483-4.653a70.72,70.72,0,0,0,.021-11.318c-.554-6.461-2.233-10.609-5.032-13.037,0,0-2.634.217-5.06.584a10.94,10.94,0,0,1-5.653-.288l-3.365,2.888a13,13,0,0,0-4.264,6.531C344.242,159.957,340.8,200.764,340.99,200.776Z" fill="#384152"/>
        <path id="Path_14721" data-name="Path 14721" d="M363.963,171.232a19.628,19.628,0,0,1-10.04,10.884c-7.724,3.542-3.108-6.748-3.108-6.748Z" fill="#151f2c"/>
        <path id="Path_14722" data-name="Path 14722" d="M344.242,159.957l6.008,1.4,8.259,22.386a7.627,7.627,0,0,0,7.342,5.2v.532l-.407,10.67-26.638,2.42s-.125-13.352.352-17.629C339.889,178.6,344.242,159.957,344.242,159.957Z" fill="#43a1f6"/>
        <path id="Path_14723" data-name="Path 14723" d="M315.435,184.884c-.19-1.75.707-2.077.707-2.077s17.705-3.922,19.2-4.457,13.934-14.518,13.934-14.518,4.754-5.812,8.871-4.717a7.654,7.654,0,0,1,5.638,6.253c.682,3.108,2.823,4.1.177,5.864-5.941,3.977-21.3,14.01-24.138,14.961-6.311,2.12-23.533,1.061-23.533,1.061a5.55,5.55,0,0,1-.86-2.371Z" fill="#384152"/>
        <path id="Path_14724" data-name="Path 14724" d="M356.472,154.87c1.4-1.3,6.118-4.628,6.118-4.628a3.5,3.5,0,0,0-.465-.59,3.691,3.691,0,0,0-.612-.471c-.612-.125-5.234,3.365-6.779,4.735-1.857,1.655-7.017,6.849-7.017,6.849l2.53.59S354.841,156.4,356.472,154.87Z" fill="#43a1f6"/>
        <path id="Path_14725" data-name="Path 14725" d="M350.681,130.165a34.272,34.272,0,0,0,4.723,2.267l6.017,1.529,8.076,2.967s2.738-5.9-.642-10.52h0c-.086-.116-.174-.232-.266-.346A11.082,11.082,0,0,0,364.443,123C354.921,118.688,350.785,129.814,350.681,130.165Z" fill="#43a1f6"/>
        <path id="Path_14726" data-name="Path 14726" d="M355.324,132.239l1.529.492c1.53-1.407,7.1-6.24,12.059-6.213a.891.891,0,0,0-.064-.122h0c-.064-.116-.122-.177-.214-.349h-.052C362.183,126.415,356.624,130.976,355.324,132.239Z" fill="#2b6eb2"/>
        <path id="Path_14727" data-name="Path 14727" d="M361.421,133.949a6.854,6.854,0,0,1,.918,2.622c.064,1.217,5.359,2.891,5.843,2.352a16.961,16.961,0,0,0,1.306-2.007Z" fill="#43a1f6"/>
        <path id="Path_14728" data-name="Path 14728" d="M361.421,133.949s-10.012-1.609-14.142-4.827a.434.434,0,0,1,.236-.777,19.8,19.8,0,0,1,3.854.254S354.407,132.206,361.421,133.949Z" fill="#2b6eb2"/>
        <path id="Path_14729" data-name="Path 14729" d="M341.74,201.486s-.511,6.145,2.331,17.678c2.086,8.464,13.741,32.04,13.741,32.04.021-.257.04-.517.061-.774,1.169-15.989,2.989-49.653,2.989-49.653Z" fill="#2b6eb2"/>
        <path id="Path_14730" data-name="Path 14730" d="M341.74,201.486s14.9,37.5,24.255,54.269S378.276,277.2,378.276,277.2s5.362-2.141,5.849-3.607c0,0-3.576-32.37-9.844-40.259-3.542-4.46-7.7-17.84-7.9-22.517s-.719-15.891-.719-15.891Z" fill="#43a1f6"/>
        <rect id="Rectangle_1392" data-name="Rectangle 1392" width="45.787" height="37.754" transform="translate(244.388 183.416)" fill="#2b6eb2"/>
        <rect id="Rectangle_1393" data-name="Rectangle 1393" width="45.787" height="37.754" transform="translate(221.494 183.416)" fill="#43a1f6"/>
        <path id="Path_14731" data-name="Path 14731" d="M290.144,211.592h-7.253l.639-2.04-.639-1.459h7.253Z" fill="#384152"/>
        <path id="Path_14732" data-name="Path 14732" d="M267.278,195.1h-7.253l.639-2.04-.639-1.459h7.253Z" fill="#618dc1"/>
        <path id="Path_14733" data-name="Path 14733" d="M267.278,191.6h7.256l-.639,2.04.639,1.459h-7.256Z" fill="#384152"/>
        <path id="Path_14734" data-name="Path 14734" d="M221.494,212h7.253l-.639,2.04.639,1.459h-7.253Z" fill="#618dc1"/>
        <rect id="Rectangle_1394" data-name="Rectangle 1394" width="13.175" height="5.127" transform="translate(237.667 191.103) rotate(180)" fill="#d4d5d9"/>
        <g id="P297LW">
          <path id="Path_14735" data-name="Path 14735" d="M140.851,159.2s2.172,12.343,4.546,25.24c2.579,14.019,5.4,28.69,5.928,28.874,1.022.352.942-1.878,1.643-3.582.563-1.367,2.279-13.089,1.716-20.4-.138-1.783-.6-23.78-3.646-26.378S140.851,159.2,140.851,159.2Z" fill="#ee805f"/>
          <path id="Path_14736" data-name="Path 14736" d="M153.634,206.456a7.259,7.259,0,0,0,.232,4c.768,1.979.918,2.542-.489,3.652s-2.955,2.67-4.02,2.209-.385-9.532-.385-9.532Z" fill="#ee805f"/>
          <path id="Path_14737" data-name="Path 14737" d="M150.685,287.406c-1.318-.8-.569-6.8-.569-6.8s6.139-4.894,6.984-1.15,5.83,5.448,8.669,5.907a3.03,3.03,0,0,1,2.753,2.046Z" fill="#151f2c"/>
          <path id="Path_14738" data-name="Path 14738" d="M123.43,287.406c-1.315-.8-.566-6.8-.566-6.8s6.136-4.894,6.981-1.15,5.83,5.448,8.669,5.907a3.025,3.025,0,0,1,2.753,2.046Z" fill="#151f2c"/>
          <path id="Path_14739" data-name="Path 14739" d="M131.958,217.8c2.184,9.229,4.937,19.77,6.014,25.7.125.691.226,1.318.306,1.872s.125,1.04.147,1.444c.572,11.132,9.367,36.576,10.942,37.17,2.447.918,6.268-1.034,8.275-1.673a1.722,1.722,0,0,0,1.208-1.955c-4.356-20.027-7.036-48.693-7.626-65.768-.306-8.6-.685-14.717-.685-14.717s-21.459-5.726-21.584,1.529C128.9,204.2,130.257,210.6,131.958,217.8Z" fill="#43a1f6"/>
          <path id="Path_14740" data-name="Path 14740" d="M131.958,217.8c2.184,9.229,4.937,19.77,6.014,25.7.125.691.78,6.531.86,7.085l3.756-42.682-5.329.492Z" fill="#2b6eb2"/>
          <path id="Path_14741" data-name="Path 14741" d="M140.407,203.878l-7.571,79.1s-5.6,1.817-10.667.416c0,0-2.943-43.245-2.667-53.813s-2.383-28.286.612-30.241S140.407,203.878,140.407,203.878Z" fill="#43a1f6"/>
          <path id="Path_14742" data-name="Path 14742" d="M120.257,182.728c-.083.918-.425,17.763-.45,18.4-.028.7,1.881,2.089,8.614,3.087a62.777,62.777,0,0,0,8.538.642c8.4.095,11.606-3.435,11.606-3.435.575,0-.639-4.093-.832-30.746a1.187,1.187,0,0,0,.44-.028,22.969,22.969,0,0,0,5.745-3.57s-3.365-9.373-6.562-14.145c-.777-1.162-2.872-2.077-5.659-2.674-.734-.156-1.529-.306-2.334-.4a47.338,47.338,0,0,0-12.655.08q-1.11.156-2.184.376a20.944,20.944,0,0,0-8,3.129c-2.964,2.141-5.17,13.184-5.17,13.184s2.793,3.172,9.079,4.717A57.9,57.9,0,0,1,120.257,182.728Z" fill="#384152"/>
          <path id="Path_14743" data-name="Path 14743" d="M150.535,199.873l-2.563-31.936a3.426,3.426,0,0,0-3.567-3.148l-17.458.7a2.784,2.784,0,0,0-2.674,2.637c-.214,4.194-1.016,12.34-4.013,14.61l-1.572,23.107L138.2,223.51s2.206-12.949,5.264-16.546C145.161,204.951,150.535,199.873,150.535,199.873Z" fill="#43a1f6"/>
          <path id="Path_14744" data-name="Path 14744" d="M124.525,150.309l2.117,16.314,2.19-.346-2.114-16.344Q125.6,150.089,124.525,150.309Z" fill="#43a1f6"/>
          <path id="Path_14745" data-name="Path 14745" d="M139.364,149.853l2.7,14.637.226,1.224.242-.055,1.927-.431-2.753-14.974C140.964,150.1,140.181,149.963,139.364,149.853Z" fill="#43a1f6"/>
          <path id="Path_14746" data-name="Path 14746" d="M111.347,184.025s1.309,3.977,18.161,9.483c0,0,.193-4.5-.832-5.1-3.169-1.86-10.706-7.409-10.976-8.385-.171-.649,1.548-5.552,3.723-10.48-4-.444-6.571-.8-9.513-2.38C110.821,174.918,109.309,180.342,111.347,184.025Z" fill="#ee805f"/>
          <path id="Path_14747" data-name="Path 14747" d="M131.432,188.632a6.918,6.918,0,0,1,2.487-1.224c1.08-.147,2.9-.847,2.6-.208s-2.285,1.646-2.285,1.646Z" fill="#ee805f"/>
          <path id="Path_14748" data-name="Path 14748" d="M134.13,195.732l5.491.67a1.248,1.248,0,0,0,1.355-.884l3.759-12.459a1.257,1.257,0,0,0-1.052-1.609l-5.491-.664a1.26,1.26,0,0,0-1.358.887l-3.769,12.45a1.257,1.257,0,0,0,1.065,1.609Z" fill="#151f2c"/>
          <path id="Path_14749" data-name="Path 14749" d="M136.075,195.97l5.506.67a1.26,1.26,0,0,0,1.355-.884l3.756-12.459a1.257,1.257,0,0,0-1.049-1.612l-5.506-.67a1.26,1.26,0,0,0-1.355.884l-3.759,12.459a1.257,1.257,0,0,0,1.052,1.612Z" fill="#151f2c"/>
          <path id="Path_14750" data-name="Path 14750" d="M139.957,183.413h0a.379.379,0,0,0,.385-.248l3.671-10.933a.232.232,0,0,0-.2-.306h0a.379.379,0,0,0-.385.248l-3.671,10.933a.232.232,0,0,0,.2.306Z" fill="#151f2c"/>
          <path id="Path_14751" data-name="Path 14751" d="M128.682,188.415a2.667,2.667,0,0,0,1.673.422,4.589,4.589,0,0,0,1.741-.658c.7-.477,2.248.153,2.707.459,1.279.853,5.6.82,5.6,1.673s-1.881,3.255-4.157,3.977-6.73-.759-6.73-.759Z" fill="#ee805f"/>
          <path id="Path_14752" data-name="Path 14752" d="M128.627,149.541c-.092,2.536,2.157,3.772,5.525,3.288s3.438-3.1,3.438-3.1l-.083-2.53-.1-2.995-.086-2.674-8.158,1.1a10.1,10.1,0,0,1,0,1.294h0C129.089,145.54,128.85,148.125,128.627,149.541Z" fill="#ee805f"/>
          <path id="Path_14753" data-name="Path 14753" d="M129.153,143.934h0c.076.107,1.939,2.649,8.351,3.267l-.1-2.995-8.259-.275Z" fill="#de6b4d"/>
          <path id="Path_14754" data-name="Path 14754" d="M138.981,145.622s-10.036,2.028-11.205-4.243-3.246-10.229,3.111-11.789,8.054.612,8.954,2.6S141.56,144.934,138.981,145.622Z" fill="#ee805f"/>
          <path id="Path_14755" data-name="Path 14755" d="M128.238,142.775s-3.487.786-3.821-5.567c-.125-2.447-.734-11.034,6.253-10.737a14.254,14.254,0,0,1,10.807,5.1c4.769,5.381-6.834,1.377-8.379,2.625s-.073,3.31-1.835,4.047-3.163.734-2.869,2.352S128.238,142.775,128.238,142.775Z" fill="#151f2c"/>
          <path id="Path_14756" data-name="Path 14756" d="M142.414,131.689a34.342,34.342,0,0,1-5.05,1.4l-6.191.425-8.47,1.5s-1.655-6.289,2.49-10.241h0c.1-.1.211-.2.324-.306a11.031,11.031,0,0,1,4.619-2.27C140.266,119.655,142.371,131.322,142.414,131.689Z" fill="#43a1f6"/>
          <path id="Path_14757" data-name="Path 14757" d="M137.476,132.909l-1.6.211c-1.254-1.655-5.885-7.394-10.768-8.259a.652.652,0,0,1,.083-.107h0c.086-.1.153-.153.272-.306h.052C131.762,125.966,136.43,131.438,137.476,132.909Z" fill="#2b6eb2"/>
          <path id="Path_14758" data-name="Path 14758" d="M131.172,133.512a6.839,6.839,0,0,0-1.373,2.42c-.284,1.2-5.788,1.9-6.167,1.282a16.593,16.593,0,0,1-.918-2.206Z" fill="#43a1f6"/>
          <path id="Path_14759" data-name="Path 14759" d="M131.172,133.512s10.137.19,14.772-2.248a.434.434,0,0,0-.095-.808,19.95,19.95,0,0,0-3.836-.431S138.385,133.038,131.172,133.512Z" fill="#2b6eb2"/>
        </g>
        <path id="Path_14760" data-name="Path 14760" d="M531.506,121.346h14.772v166.06h-25.05V205.5l10.278-42.076Z" fill="#b8c0c7"/>
        <rect id="Rectangle_1395" data-name="Rectangle 1395" width="81.892" height="42.079" transform="translate(531.503 163.426) rotate(180)" fill="#677282"/>
        <rect id="Rectangle_1396" data-name="Rectangle 1396" width="81.892" height="81.901" transform="translate(521.228 287.406) rotate(180)" fill="#677282"/>
        <path id="Path_14761" data-name="Path 14761" d="M439.336,205.5h81.892l10.278-42.076H449.614Z" fill="#d4d5d9"/>
        <path id="Path_14762" data-name="Path 14762" d="M519.876,171.783h2.141l.82-3.05H520.7Z" fill="#b8c0c7"/>
        <path id="Path_14763" data-name="Path 14763" d="M515.006,171.783h2.141l.82-3.05h-2.141Z" fill="#b8c0c7"/>
        <path id="Path_14764" data-name="Path 14764" d="M510.136,171.783h2.141l.817-3.05h-2.138Z" fill="#b8c0c7"/>
        <path id="Path_14765" data-name="Path 14765" d="M505.263,171.783H507.4l.82-3.05h-2.141Z" fill="#b8c0c7"/>
        <path id="Path_14766" data-name="Path 14766" d="M500.393,171.783h2.141l.82-3.05h-2.141Z" fill="#b8c0c7"/>
        <path id="Path_14767" data-name="Path 14767" d="M495.523,171.783h2.141l.817-3.05H496.34Z" fill="#b8c0c7"/>
        <path id="Path_14768" data-name="Path 14768" d="M518.349,177.476h2.141l.817-3.05h-2.141Z" fill="#b8c0c7"/>
        <path id="Path_14769" data-name="Path 14769" d="M513.477,177.476h2.141l.82-3.05H514.3Z" fill="#b8c0c7"/>
        <path id="Path_14770" data-name="Path 14770" d="M508.607,177.476h2.141l.82-3.05h-2.141Z" fill="#b8c0c7"/>
        <path id="Path_14771" data-name="Path 14771" d="M503.737,177.476h2.141l.817-3.05h-2.141Z" fill="#b8c0c7"/>
        <path id="Path_14772" data-name="Path 14772" d="M498.864,177.476h2.141l.82-3.05h-2.141Z" fill="#b8c0c7"/>
        <path id="Path_14773" data-name="Path 14773" d="M493.994,177.476h2.141l.82-3.05h-2.141Z" fill="#b8c0c7"/>
        <path id="Path_14774" data-name="Path 14774" d="M516.765,183.37h2.141l.82-3.05h-2.141Z" fill="#b8c0c7"/>
        <path id="Path_14775" data-name="Path 14775" d="M511.9,183.37h2.141l.817-3.05h-2.141Z" fill="#b8c0c7"/>
        <path id="Path_14776" data-name="Path 14776" d="M507.022,183.37h2.141l.82-3.05h-2.141Z" fill="#b8c0c7"/>
        <path id="Path_14777" data-name="Path 14777" d="M502.152,183.37h2.141l.82-3.05h-2.141Z" fill="#b8c0c7"/>
        <path id="Path_14778" data-name="Path 14778" d="M497.282,183.37h2.141l.817-3.05H498.1Z" fill="#b8c0c7"/>
        <path id="Path_14779" data-name="Path 14779" d="M492.409,183.37h2.141l.82-3.05h-2.141Z" fill="#b8c0c7"/>
        <path id="Path_14780" data-name="Path 14780" d="M515.235,189.063h2.141l.82-3.05h-2.141Z" fill="#b8c0c7"/>
        <path id="Path_14781" data-name="Path 14781" d="M510.366,189.063h2.141l.82-3.05h-2.141Z" fill="#b8c0c7"/>
        <path id="Path_14782" data-name="Path 14782" d="M505.5,189.063h2.141l.817-3.05h-2.141Z" fill="#b8c0c7"/>
        <path id="Path_14783" data-name="Path 14783" d="M500.623,189.063h2.141l.82-3.05h-2.141Z" fill="#b8c0c7"/>
        <path id="Path_14784" data-name="Path 14784" d="M495.753,189.063h2.141l.82-3.05h-2.141Z" fill="#b8c0c7"/>
        <path id="Path_14785" data-name="Path 14785" d="M490.883,189.063h2.138l.82-3.05H491.7Z" fill="#b8c0c7"/>
        <path id="Path_14786" data-name="Path 14786" d="M485.979,171.783h2.141l.817-3.05H486.8Z" fill="#b8c0c7"/>
        <path id="Path_14787" data-name="Path 14787" d="M481.106,171.783h2.141l.82-3.05h-2.141Z" fill="#b8c0c7"/>
        <path id="Path_14788" data-name="Path 14788" d="M476.237,171.783h2.141l.82-3.05h-2.141Z" fill="#b8c0c7"/>
        <path id="Path_14789" data-name="Path 14789" d="M471.367,171.783H473.5l.82-3.05h-2.141Z" fill="#b8c0c7"/>
        <path id="Path_14790" data-name="Path 14790" d="M466.494,171.783h2.141l.82-3.05h-2.141Z" fill="#b8c0c7"/>
        <path id="Path_14791" data-name="Path 14791" d="M461.624,171.783h2.141l.82-3.05h-2.141Z" fill="#b8c0c7"/>
        <path id="Path_14792" data-name="Path 14792" d="M484.45,177.476h2.141l.82-3.05H485.27Z" fill="#b8c0c7"/>
        <path id="Path_14793" data-name="Path 14793" d="M479.58,177.476h2.141l.817-3.05H480.4Z" fill="#b8c0c7"/>
        <path id="Path_14794" data-name="Path 14794" d="M474.707,177.476h2.141l.82-3.05h-2.141Z" fill="#b8c0c7"/>
        <path id="Path_14795" data-name="Path 14795" d="M469.837,177.476h2.141l.82-3.05h-2.141Z" fill="#b8c0c7"/>
        <path id="Path_14796" data-name="Path 14796" d="M464.967,177.476h2.138l.82-3.05h-2.141Z" fill="#b8c0c7"/>
        <path id="Path_14797" data-name="Path 14797" d="M460.094,177.476h2.141l.82-3.05h-2.141Z" fill="#b8c0c7"/>
        <path id="Path_14798" data-name="Path 14798" d="M482.865,183.37h2.141l.82-3.05h-2.141Z" fill="#b8c0c7"/>
        <path id="Path_14799" data-name="Path 14799" d="M478,183.37h2.141l.82-3.05h-2.141Z" fill="#b8c0c7"/>
        <path id="Path_14800" data-name="Path 14800" d="M473.126,183.37h2.138l.82-3.05h-2.141Z" fill="#b8c0c7"/>
        <path id="Path_14801" data-name="Path 14801" d="M468.253,183.37h2.141l.82-3.05h-2.141Z" fill="#b8c0c7"/>
        <path id="Path_14802" data-name="Path 14802" d="M463.383,183.37h2.141l.82-3.05H464.2Z" fill="#b8c0c7"/>
        <path id="Path_14803" data-name="Path 14803" d="M458.51,183.37h2.141l.82-3.05H459.33Z" fill="#b8c0c7"/>
        <path id="Path_14804" data-name="Path 14804" d="M481.339,189.063h2.141l.817-3.05h-2.141Z" fill="#b8c0c7"/>
        <path id="Path_14805" data-name="Path 14805" d="M476.466,189.063h2.141l.82-3.05h-2.141Z" fill="#b8c0c7"/>
        <path id="Path_14806" data-name="Path 14806" d="M471.6,189.063h2.141l.82-3.05h-2.141Z" fill="#b8c0c7"/>
        <path id="Path_14807" data-name="Path 14807" d="M466.726,189.063h2.138l.82-3.05h-2.141Z" fill="#b8c0c7"/>
        <path id="Path_14808" data-name="Path 14808" d="M461.853,189.063h2.141l.82-3.05h-2.141Z" fill="#b8c0c7"/>
        <path id="Path_14809" data-name="Path 14809" d="M456.983,189.063h2.141l.817-3.05H457.8Z" fill="#b8c0c7"/>
        <rect id="Rectangle_1397" data-name="Rectangle 1397" width="30.403" height="24.496" transform="translate(525.217 159.284) rotate(180)" fill="#151f2c"/>
        <rect id="Rectangle_1398" data-name="Rectangle 1398" width="2.172" height="24.496" transform="translate(496.952 159.284) rotate(180)" fill="#384152"/>
        <path id="Path_14810" data-name="Path 14810" d="M442.236,248.924h73.241v30.119H442.236ZM515,249.4H442.713v29.161H515Z" fill="#b8c0c7"/>
        <path id="Path_14811" data-name="Path 14811" d="M476.142,128.382c0,.918.52,1.652,1.162,1.652s1.159-.74,1.159-1.652-.52-1.652-1.159-1.652S476.142,127.467,476.142,128.382Z" fill="#fff"/>
        <path id="Path_14812" data-name="Path 14812" d="M470.712,128.382c0,.918.52,1.652,1.162,1.652s1.159-.74,1.159-1.652-.52-1.652-1.159-1.652S470.712,127.467,470.712,128.382Z" fill="#43a1f6"/>
        <path id="Path_14813" data-name="Path 14813" d="M465.285,128.382c0,.918.52,1.652,1.159,1.652s1.162-.74,1.162-1.652-.52-1.652-1.162-1.652S465.285,127.467,465.285,128.382Z" fill="#699dee"/>
        <path id="Path_14814" data-name="Path 14814" d="M459.856,128.382c0,.918.52,1.652,1.162,1.652s1.159-.74,1.159-1.652-.52-1.652-1.159-1.652S459.856,127.467,459.856,128.382Z" fill="#fff"/>
        <path id="Path_14815" data-name="Path 14815" d="M454.429,128.382c0,.918.52,1.652,1.159,1.652s1.162-.74,1.162-1.652-.52-1.652-1.162-1.652S454.429,127.467,454.429,128.382Z" fill="#43a1f6"/>
        <path id="Path_14816" data-name="Path 14816" d="M454.187,134.546h24.047v20.238H454.187Zm23.554.48H454.652v19.29h23.089Z" fill="#b8c0c7"/>
        <rect id="Rectangle_1399" data-name="Rectangle 1399" width="3.711" height="0.685" transform="translate(516.884 138.088) rotate(180)" fill="#e9f3fe"/>
        <rect id="Rectangle_1400" data-name="Rectangle 1400" width="5.849" height="0.685" transform="translate(524.094 138.088) rotate(180)" fill="#e9f3fe"/>
        <rect id="Rectangle_1401" data-name="Rectangle 1401" width="8.85" height="0.685" transform="translate(524.094 139.918) rotate(180)" fill="#e9f3fe"/>
        <rect id="Rectangle_1402" data-name="Rectangle 1402" width="5.87" height="0.685" transform="translate(514.052 139.918) rotate(180)" fill="#e9f3fe"/>
        <rect id="Rectangle_1403" data-name="Rectangle 1403" width="6.409" height="0.685" transform="translate(512.372 138.088) rotate(180)" fill="#e9f3fe"/>
        <rect id="Rectangle_1404" data-name="Rectangle 1404" width="5.849" height="0.685" transform="translate(524.094 143.071) rotate(180)" fill="#e9f3fe"/>
        <rect id="Rectangle_1405" data-name="Rectangle 1405" width="8.85" height="0.685" transform="translate(524.094 144.904) rotate(180)" fill="#e9f3fe"/>
        <rect id="Rectangle_1406" data-name="Rectangle 1406" width="5.87" height="0.685" transform="translate(514.052 144.904) rotate(180)" fill="#e9f3fe"/>
        <rect id="Rectangle_1407" data-name="Rectangle 1407" width="3.711" height="0.685" transform="translate(516.884 143.071) rotate(180)" fill="#e9f3fe"/>
        <rect id="Rectangle_1408" data-name="Rectangle 1408" width="6.409" height="0.685" transform="translate(512.372 143.071) rotate(180)" fill="#e9f3fe"/>
        <rect id="Rectangle_1409" data-name="Rectangle 1409" width="5.849" height="0.685" transform="translate(524.094 148.562) rotate(180)" fill="#e9f3fe"/>
        <rect id="Rectangle_1410" data-name="Rectangle 1410" width="8.85" height="0.685" transform="translate(524.094 150.391) rotate(180)" fill="#e9f3fe"/>
        <rect id="Rectangle_1411" data-name="Rectangle 1411" width="5.87" height="0.685" transform="translate(514.052 150.391) rotate(180)" fill="#e9f3fe"/>
        <rect id="Rectangle_1412" data-name="Rectangle 1412" width="3.711" height="0.685" transform="translate(516.884 148.562) rotate(180)" fill="#e9f3fe"/>
        <rect id="Rectangle_1413" data-name="Rectangle 1413" width="6.409" height="0.685" transform="translate(512.372 148.562) rotate(180)" fill="#e9f3fe"/>
        <rect id="Rectangle_1414" data-name="Rectangle 1414" width="5.849" height="0.685" transform="translate(524.094 153.848) rotate(180)" fill="#e9f3fe"/>
        <rect id="Rectangle_1415" data-name="Rectangle 1415" width="8.85" height="0.685" transform="translate(524.094 155.677) rotate(180)" fill="#e9f3fe"/>
        <rect id="Rectangle_1416" data-name="Rectangle 1416" width="5.87" height="0.685" transform="translate(514.052 155.677) rotate(180)" fill="#e9f3fe"/>
        <rect id="Rectangle_1417" data-name="Rectangle 1417" width="3.711" height="0.685" transform="translate(516.884 153.848) rotate(180)" fill="#e9f3fe"/>
        <rect id="Rectangle_1418" data-name="Rectangle 1418" width="6.409" height="0.685" transform="translate(512.372 153.848) rotate(180)" fill="#e9f3fe"/>
        <rect id="Rectangle_1419" data-name="Rectangle 1419" width="35.38" height="29.173" transform="translate(27.537 258.208)" fill="#2b6eb2"/>
        <rect id="Rectangle_1420" data-name="Rectangle 1420" width="35.38" height="29.173" transform="translate(9.847 258.208)" fill="#43a1f6"/>
        <path id="Path_14817" data-name="Path 14817" d="M62.9,279.982H57.288l.5-1.578-.5-1.126H62.9Z" fill="#5d86e2"/>
        <path id="Path_14818" data-name="Path 14818" d="M45.227,267.235H39.62l.492-1.578-.492-1.126h5.607Z" fill="#384152"/>
        <path id="Path_14819" data-name="Path 14819" d="M45.227,264.531h5.607l-.5,1.575.5,1.129H45.227Z" fill="#151f2c"/>
        <path id="Path_14820" data-name="Path 14820" d="M9.847,280.294h5.6l-.492,1.578L15.451,283h-5.6Z" fill="#384152"/>
        <rect id="Rectangle_1421" data-name="Rectangle 1421" width="10.18" height="3.961" transform="translate(22.346 264.146) rotate(180)" fill="#d4d5d9"/>
        <rect id="Rectangle_1422" data-name="Rectangle 1422" width="35.45" height="29.232" transform="translate(75.41 258.177)" fill="#2b6eb2"/>
        <rect id="Rectangle_1423" data-name="Rectangle 1423" width="35.45" height="29.232" transform="translate(57.683 258.177)" fill="#43a1f6"/>
        <path id="Path_14821" data-name="Path 14821" d="M110.839,280h-5.616l.492-1.582-.492-1.129h5.616Z" fill="#151f2c"/>
        <path id="Path_14822" data-name="Path 14822" d="M93.134,267.223H87.517l.492-1.578-.492-1.132h5.616Z" fill="#384152"/>
        <path id="Path_14823" data-name="Path 14823" d="M93.134,264.513h5.619l-.5,1.581.5,1.129H93.134Z" fill="#151f2c"/>
        <path id="Path_14824" data-name="Path 14824" d="M57.683,280.309H63.3l-.5,1.582.5,1.129H57.683Z" fill="#384152"/>
        <rect id="Rectangle_1424" data-name="Rectangle 1424" width="10.202" height="3.967" transform="translate(70.207 264.127) rotate(180)" fill="#d4d5d9"/>
        <rect id="Rectangle_1425" data-name="Rectangle 1425" width="33.239" height="27.408" transform="translate(59.252 230.8)" fill="#2b6eb2"/>
        <rect id="Rectangle_1426" data-name="Rectangle 1426" width="33.239" height="27.408" transform="translate(42.633 230.8)" fill="#43a1f6"/>
        <path id="Path_14825" data-name="Path 14825" d="M92.47,251.255H87.205l.462-1.484-.462-1.058H92.47Z" fill="#de6b4d"/>
        <path id="Path_14826" data-name="Path 14826" d="M75.872,239.279H70.6l.465-1.481L70.6,236.74h5.268Z" fill="#ee805f"/>
        <path id="Path_14827" data-name="Path 14827" d="M75.872,236.74h5.268l-.465,1.481.465,1.058H75.872Z" fill="#de6b4d"/>
        <path id="Path_14828" data-name="Path 14828" d="M42.633,251.549H47.9l-.462,1.484.462,1.058H42.633Z" fill="#ee805f"/>
        <rect id="Rectangle_1427" data-name="Rectangle 1427" width="9.565" height="3.72" transform="translate(54.373 236.379) rotate(180)" fill="#d4d5d9"/>
        <rect id="Rectangle_1428" data-name="Rectangle 1428" width="1.477" height="1.477" transform="translate(492.412 143.952) rotate(180)" fill="#b8c0c7"/>
        <rect id="Rectangle_1429" data-name="Rectangle 1429" width="1.477" height="1.477" transform="translate(488.573 143.952) rotate(180)" fill="#b8c0c7"/>
        <rect id="Rectangle_1430" data-name="Rectangle 1430" width="1.477" height="1.477" transform="translate(484.737 143.952) rotate(180)" fill="#b8c0c7"/>
        <rect id="Rectangle_1431" data-name="Rectangle 1431" width="1.477" height="1.477" transform="translate(492.412 147.241) rotate(180)" fill="#b8c0c7"/>
        <rect id="Rectangle_1432" data-name="Rectangle 1432" width="1.477" height="1.477" transform="translate(488.573 147.241) rotate(180)" fill="#b8c0c7"/>
        <rect id="Rectangle_1433" data-name="Rectangle 1433" width="1.477" height="1.477" transform="translate(484.737 147.241) rotate(180)" fill="#b8c0c7"/>
        <rect id="Rectangle_1434" data-name="Rectangle 1434" width="1.477" height="1.477" transform="translate(492.412 150.887) rotate(180)" fill="#b8c0c7"/>
        <rect id="Rectangle_1435" data-name="Rectangle 1435" width="1.477" height="1.477" transform="translate(488.573 150.887) rotate(180)" fill="#b8c0c7"/>
        <rect id="Rectangle_1436" data-name="Rectangle 1436" width="1.477" height="1.477" transform="translate(484.737 150.887) rotate(180)" fill="#b8c0c7"/>
        <path id="Path_14829" data-name="Path 14829" d="M477.02,182.945l-2.392-.352c-.263-.04-.376-.306-.266-.645l2.328-7.091a.991.991,0,0,1,.918-.716l2.392.352c.263.04.376.306.266.645l-2.328,7.091A1,1,0,0,1,477.02,182.945Z" fill="#151f2c"/>
        <path id="Path_14830" data-name="Path 14830" d="M476.172,182.82l-2.392-.352c-.263-.04-.376-.306-.266-.645l2.328-7.091a.991.991,0,0,1,.918-.716l2.392.352c.263.04.376.306.266.645L477.09,182.1A1,1,0,0,1,476.172,182.82Z" fill="#192e4f"/>
        <path id="Path_14831" data-name="Path 14831" d="M478.482,175.662h0c-.067,0-.1-.092-.076-.18l1.89-6.268a.187.187,0,0,1,.177-.147h0c.067,0,.1.095.076.184l-1.89,6.268a.18.18,0,0,1-.177.144Z" fill="#192e4f"/>
        <path id="Path_14832" data-name="Path 14832" d="M479.115,151.86a19.206,19.206,0,0,1,3.1-4.026c1.37-1.089,4.989-1.395,5.13-1.117.434.863-1.435,2.108-1.835,2.9s-.223,1.93-2.065,2.863c-1.9.964-3.007,1.594-3.007,1.594Z" fill="#ee805f"/>
        <path id="Path_14833" data-name="Path 14833" d="M480.565,151.459c-.887-1.38-1.153-1.453-1.153-1.453s-14.683,5.858-16.09,6.347-22.358,1.722-22.358,1.722l-6.326,13.9s27.928-6.369,31.455-7.678c5.83-2.163,15.179-10.636,15.179-10.636a4.588,4.588,0,0,0-.707-2.2Z" fill="#151f2c"/>
        <path id="Path_14834" data-name="Path 14834" d="M444.084,281.426s.306,5.154,1.279,6.369h14.732a2.616,2.616,0,0,0-2.352-2.1c-2.328-.407-6.225-2.043-7.647-5.118C448.626,277.342,444.084,281.426,444.084,281.426Z" fill="#151f2c"/>
        <path id="Path_14835" data-name="Path 14835" d="M417.939,280.716s-.918,6.7.343,6.812h7.733c2.649-.015,6.88,0,6.88,0a.691.691,0,0,0,.612-1.04,2.8,2.8,0,0,0-2-1.285c-2.322-.447-6.188-2.141-7.543-5.252C422.552,276.706,417.939,280.716,417.939,280.716Z" fill="#151f2c"/>
        <path id="Path_14836" data-name="Path 14836" d="M451.012,212.816s-3.7,12.964-14.322,35.484-11.438,32.768-11.438,32.768l-7.314-.343s.688-26.794,5.7-38.155,6.038-42.446,6.038-42.446Z" fill="#2b6eb2"/>
        <path id="Path_14837" data-name="Path 14837" d="M456.959,201.663a321.241,321.241,0,0,1-3.178,44.719c-3.484,24.646-2.294,35.108-2.294,35.108l-8.317.275s-4.971-24.655-3.545-36.992-6.809-42.327-6.809-42.327Z" fill="#43a1f6"/>
        <path id="Path_14838" data-name="Path 14838" d="M440.547,154.689l3.922,2.906,5.671-1.193c-.08-.517-.453-2.661-.8-4.588-.018-.116-.04-.229-.058-.343l-.544-3.059-5.3-2.64-1.976-.985c0,.034.153,1.835.174,2.1A16.81,16.81,0,0,1,440.547,154.689Z" fill="#ee805f"/>
        <path id="Path_14839" data-name="Path 14839" d="M449.743,153.224c-.125-.052-7.712-2.291-8.538-2.019s-1.312,1.866-1.312,1.866l11.716,3.337S451.327,153.891,449.743,153.224Z" fill="#151f2c"/>
        <path id="Path_14840" data-name="Path 14840" d="M429.309,204.141c1.285,5.867,28.1-12.542,27.745-16.124-.04-.395-.08-.789-.116-1.184-.5-4.986-.97-9.865-1-13.05a45,45,0,0,0-.918-8.149c-.465-2.368-1.037-4.518-1.53-6.191a6.84,6.84,0,0,0-1.875-3.035,6.69,6.69,0,0,0-2.141-1.361,6.392,6.392,0,0,0-.667-.236c-3.23-.936-7.7-2.1-8.911-1.741-3.282.967-5.717,6.73-7.446,14.1C429.217,180.963,428.471,200.317,429.309,204.141Z" fill="#384152"/>
        <path id="Path_14841" data-name="Path 14841" d="M442.043,146.944c1.162,2.224,5.506,4.148,7.3,4.858-.018-.116-.04-.229-.058-.343l-.544-3.059-5.3-2.64C442.276,145.733,441.563,146.029,442.043,146.944Z" fill="#de6b4d"/>
        <path id="Path_14842" data-name="Path 14842" d="M451.315,148.079s-9.553,2.982-11.318-3-4.185-9.62,1.835-11.774,7.889-.226,8.966,1.624S453.756,147.137,451.315,148.079Z" fill="#ee805f"/>
        <path id="Path_14843" data-name="Path 14843" d="M450.425,134.356s-.612,6.956-2.049,6.656-2.753-.526-2.533,1.569,2.206,4.518-2.227,4.894-10.807-11.064-9.59-13.23C437.54,128,455.5,126.736,450.425,134.356Z" fill="#151f2c"/>
        <path id="Path_14844" data-name="Path 14844" d="M456.246,201.663c-2.658.961.046-2.64,0-3.389-.208-3.3,1.086-7.47.691-11.441l-16.213-9.7S436.868,201.51,456.246,201.663Z" fill="#151f2c"/>
        <path id="Path_14845" data-name="Path 14845" d="M429.309,204.141c6.926,12.832,8.027,17.742,8.027,17.742,6.026-.685,16.353-12.542,19.629-15.7,0,0,.447-14.582.089-18.161l-5-.144s-9.048,2.291-11.395-.82-1.331-18.387-1.331-18.387l-6.877-1.49C429.217,180.963,427.452,200.7,429.309,204.141Z" fill="#43a1f6"/>
        <path id="Path_14846" data-name="Path 14846" d="M468.815,179.589a9.165,9.165,0,0,0,2.493-.808c.762-.612,1.358-1.673,1.731-1.789.612-.193,2.163-2.123,2.291-2.261.049-.052.462.15.361.468s-.33,1.009-.413,1.257c-.364,1.1-.346,1.435.967,1.009.168-.055,3.2-1.016,3.512-.33s-.945,4-2.527,4.711-5.485.07-5.766.15C469.079,182.691,468.815,179.589,468.815,179.589Z" fill="#ee805f"/>
        <path id="Path_14847" data-name="Path 14847" d="M470.428,178.95s-16.087,2.738-17.513,2.043c-2.276-1.11.881-17.436.881-17.436s.138-3.7-4.185-4.573c-3.753-.759-7.378,2.056-7.378,2.056s-3.295,2.946-2.872,6.216c.918,7.25,2.383,21.991,7.231,24.252,6.253,2.915,24.346-8.082,24.346-8.082a3.16,3.16,0,0,0,.517-2.108A4.816,4.816,0,0,0,470.428,178.95Z" fill="#384152"/>
        <path id="Path_14848" data-name="Path 14848" d="M437.99,168.375l1.334.306s2.817-12.2,12.285-12.257a6.69,6.69,0,0,0-2.141-1.361C446,155.977,439.975,158.941,437.99,168.375Z" fill="#43a1f6"/>
        <path id="Path_14849" data-name="Path 14849" d="M484.4,150.275s2.609-1.6,2.732-.918c.061.343-1.1,1.279-1.566,1.676s-1.655,1.184-1.655,1.184Z" fill="#ee805f"/>
        <rect id="Rectangle_1437" data-name="Rectangle 1437" width="552.787" height="2.594" rx="0.832" transform="translate(552.787 290) rotate(180)" fill="#384152"/>
      </g>
    </g>
  </g>
</svg>
