<svg xmlns="http://www.w3.org/2000/svg" width="14" height="14" viewBox="0 0 14 14">
  <g id="Icons" transform="translate(0)">
    <g id="Color-" transform="translate(0)">
      <path id="Facebook" d="M207.478,174h-6.7a.773.773,0,0,1-.773-.773V160.773a.773.773,0,0,1,.773-.773h12.454a.773.773,0,0,1,.773.773v12.454a.773.773,0,0,1-.773.773h-3.568v-5.421h1.82l.272-2.113h-2.092v-1.349c0-.612.17-1.029,1.047-1.029h1.119V162.2a14.994,14.994,0,0,0-1.63-.083,2.546,2.546,0,0,0-2.717,2.793v1.558h-1.824v2.113h1.824V174Z" transform="translate(-200.001 -160)" fill="#4460a0" fill-rule="evenodd"/>
    </g>
  </g>
</svg>
