<svg xmlns="http://www.w3.org/2000/svg" xmlns:xlink="http://www.w3.org/1999/xlink" width="130" height="130" viewBox="0 0 130 130">
  <defs>
    <clipPath id="clip-path">
      <rect id="Rectangle_1439" data-name="Rectangle 1439" width="110" height="110" transform="translate(486 1793)" fill="#0467d5" stroke="#3d3d3d" stroke-width="1"/>
    </clipPath>
  </defs>
  <g id="Group_19223" data-name="Group 19223" transform="translate(-486 -1759)">
    <circle id="Ellipse_31" data-name="Ellipse 31" cx="45" cy="45" r="45" transform="translate(526 1799)" fill="rgba(233,243,255,0.92)"/>
    <g id="Mask_Group_117" data-name="Mask Group 117" transform="translate(0 -34)" clip-path="url(#clip-path)">
      <g id="download_1_" data-name="download (1)" transform="translate(486 1793)">
        <g id="XMLID_1318_">
          <g id="XMLID_361_">
            <path id="XMLID_364_" d="M9.019,80.339a9.019,9.019,0,1,0,9.019,9.019A9.029,9.029,0,0,0,9.019,80.339Zm0,13.743a4.724,4.724,0,1,1,4.724-4.724A4.73,4.73,0,0,1,9.019,94.082Z" fill="#0467d5"/>
            <path id="XMLID_367_" d="M100.981,61.442a9.028,9.028,0,1,0-8.928-7.747L64.768,64.654a11.677,11.677,0,0,0-1.581-1.967L71,51.219A7.322,7.322,0,1,0,67.453,48.8l-7.814,11.47a11.5,11.5,0,0,0-2.492-.769V2.175a2.147,2.147,0,0,0-4.295,0V59.5l-.044.008L43.982,39.452a7.312,7.312,0,1,0-3.929,1.734l8.761,19.9a11.687,11.687,0,0,0-3.425,3.32L25.034,55.636a9.032,9.032,0,1,0-1.7,3.943l20.356,8.774a11.541,11.541,0,0,0-.062,4.792L32.494,77.615a2.147,2.147,0,1,0,1.6,3.985l11.138-4.473a11.681,11.681,0,0,0,3.549,3.542L42.9,95.4c-.2-.016-.394-.026-.594-.026a7.312,7.312,0,1,0,4.581,1.622l5.882-14.724a11.576,11.576,0,0,0,11.475-4.384l19.1,9.5a9.038,9.038,0,1,0,1.916-3.844l-19.1-9.5a11.552,11.552,0,0,0,.217-5.4L93.658,57.678A9.01,9.01,0,0,0,100.981,61.442ZM73.154,41.236a3.006,3.006,0,1,1-3.006,3.006A3.01,3.01,0,0,1,73.154,41.236ZM36.2,33.935a3.006,3.006,0,1,1,3.006,3.006A3.01,3.01,0,0,1,36.2,33.935ZM16.141,58.865a4.724,4.724,0,1,1,4.724-4.724A4.73,4.73,0,0,1,16.141,58.865ZM42.3,105.678a3.006,3.006,0,1,1,3.006-3.006A3.01,3.01,0,0,1,42.3,105.678ZM92.141,84.634a4.724,4.724,0,1,1-4.724,4.724A4.73,4.73,0,0,1,92.141,84.634ZM55,78.192a7.3,7.3,0,1,1,7.3-7.3A7.309,7.309,0,0,1,55,78.192ZM100.981,47.7a4.724,4.724,0,1,1-4.724,4.724A4.73,4.73,0,0,1,100.981,47.7Z" fill="#0467d5"/>
            <path id="XMLID_374_" d="M24.377,81.071A2.148,2.148,0,1,0,25.9,81.7,2.163,2.163,0,0,0,24.377,81.071Z" fill="#0467d5"/>
          </g>
        </g>
      </g>
    </g>
  </g>
</svg>
