<svg xmlns="http://www.w3.org/2000/svg" xmlns:xlink="http://www.w3.org/1999/xlink" width="130" height="130" viewBox="0 0 130 130">
  <defs>
    <clipPath id="clip-path">
      <rect id="Rectangle_1440" data-name="Rectangle 1440" width="110" height="110" transform="translate(1056 1793)" fill="#0467d5" stroke="#3d3d3d" stroke-width="1"/>
    </clipPath>
  </defs>
  <g id="Group_19225" data-name="Group 19225" transform="translate(-1056 -1759)">
    <circle id="Ellipse_33" data-name="Ellipse 33" cx="45" cy="45" r="45" transform="translate(1096 1799)" fill="rgba(233,243,255,0.92)"/>
    <g id="Mask_Group_118" data-name="Mask Group 118" transform="translate(0 -34)" clip-path="url(#clip-path)">
      <g id="_1" data-name="1" transform="translate(1056 1793)">
        <g id="Group_19215" data-name="Group 19215">
          <g id="Group_19212" data-name="Group 19212">
            <g id="Group_19211" data-name="Group 19211">
              <path id="Path_14850" data-name="Path 14850" d="M81.028,31.12a2.148,2.148,0,1,1,2.1-1.712,2.169,2.169,0,0,1-2.1,1.712Z" fill="#0467d5"/>
            </g>
          </g>
          <g id="Group_19214" data-name="Group 19214">
            <g id="Group_19213" data-name="Group 19213">
              <path id="Path_14851" data-name="Path 14851" d="M51.26,65.491A11.886,11.886,0,1,0,39.374,53.6,11.9,11.9,0,0,0,51.26,65.491Zm0-19.476A7.589,7.589,0,1,1,43.671,53.6,7.6,7.6,0,0,1,51.26,46.015Z" fill="#0467d5"/>
              <path id="Path_14852" data-name="Path 14852" d="M98.762,0a11.231,11.231,0,0,0-9.314,17.512L84.83,22.129a2.148,2.148,0,1,0,3.038,3.038l4.617-4.618A11.234,11.234,0,1,0,98.762,0Zm0,18.174a6.938,6.938,0,1,1,6.938-6.939A6.946,6.946,0,0,1,98.762,18.174Z" fill="#0467d5"/>
              <path id="Path_14853" data-name="Path 14853" d="M86.915,79.811a14.409,14.409,0,0,0-8.664,2.884l-7.207-7.208a25.884,25.884,0,0,0,0-33.49l6.125-6.126a2.148,2.148,0,1,0-3.039-3.038L68,38.958a25.872,25.872,0,0,0-33.485,0L23.328,27.768a10.785,10.785,0,1,0-3.038,3.038L31.479,42a25.885,25.885,0,0,0,0,33.491L20.834,86.13a13.181,13.181,0,1,0,3.038,3.038L34.51,78.53a25.878,25.878,0,0,0,33.5,0l7.219,7.219a14.478,14.478,0,1,0,11.686-5.938ZM7.867,21.824A6.478,6.478,0,1,1,14.345,28.3,6.486,6.486,0,0,1,7.867,21.824ZM51.26,37.107a21.632,21.632,0,0,1,14.023,38.1V72.158a5.4,5.4,0,0,0-5.394-5.395H42.631a5.4,5.4,0,0,0-5.395,5.395V75.21a21.632,21.632,0,0,1,14.023-38.1ZM13.171,105.7a8.871,8.871,0,1,1,8.871-8.871A8.881,8.881,0,0,1,13.171,105.7ZM60.986,78.069a21.672,21.672,0,0,1-19.452,0V72.158a1.1,1.1,0,0,1,1.1-1.1H59.888a1.1,1.1,0,0,1,1.1,1.1v5.911Zm25.929,26.414A10.188,10.188,0,1,1,97.1,94.3a10.2,10.2,0,0,1-10.187,10.188Z" fill="#0467d5"/>
            </g>
          </g>
        </g>
      </g>
    </g>
  </g>
</svg>
