<svg xmlns="http://www.w3.org/2000/svg" xmlns:xlink="http://www.w3.org/1999/xlink" width="130" height="130" viewBox="0 0 130 130">
  <defs>
    <clipPath id="clip-path">
      <rect id="Rectangle_1442" data-name="Rectangle 1442" width="110" height="110" transform="translate(190 1796)" fill="#0467d5" stroke="#3d3d3d" stroke-width="1"/>
    </clipPath>
  </defs>
  <g id="Group_19222" data-name="Group 19222" transform="translate(-180 -1750)">
    <circle id="Ellipse_34" data-name="Ellipse 34" cx="45" cy="45" r="45" transform="translate(220 1790)" fill="rgba(233,243,255,0.92)"/>
    <g id="Mask_Group_120" data-name="Mask Group 120" transform="translate(-10 -46)" clip-path="url(#clip-path)">
      <g id="kĩ_sư" data-name="kĩ sư" transform="translate(190.245 1796)">
        <g id="Group_19216" data-name="Group 19216" transform="translate(0 0)">
          <path id="Path_14855" data-name="Path 14855" d="M94.715,95.185a2.132,2.132,0,0,0-2.589,3.387l3.643,2.784a2.131,2.131,0,0,0,2.874-.263l6.963-7.688a2.132,2.132,0,1,0-3.16-2.862L96.8,96.778Z" transform="translate(-7.852 -7.487)" fill="#0467d5"/>
          <path id="Path_14856" data-name="Path 14856" d="M109.762,76.319a2.131,2.131,0,0,0-1.945-2.076c-5.071-.443-11.311-3.849-15.9-8.677a2.132,2.132,0,0,0-1.545-.663h0a2.132,2.132,0,0,0-1.544.662,32.276,32.276,0,0,1-6.915,5.5,38.485,38.485,0,0,0-15.9-10.631c-.054-.022-.109-.042-.166-.059q-.729-.258-1.476-.493c5.28-5.266,8.831-12.185,8.831-18.393V38.136a7.05,7.05,0,0,0-.3-13.058A26.3,26.3,0,0,0,54.023,2.54,3.2,3.2,0,0,0,50.893,0H43.169a3.2,3.2,0,0,0-3.09,2.388,26.363,26.363,0,0,0-19.421,22.69,7.047,7.047,0,0,0-.3,13.059v3.348c0,6.2,3.552,13.124,8.831,18.393q-.724.228-1.434.477a2.12,2.12,0,0,0-.271.1A38.473,38.473,0,0,0,10.1,72.908,49.69,49.69,0,0,0,.816,93.25c-.629,2.844-1.1,6.417.838,8.831,1.894,2.358,5.283,2.66,8.024,2.66H23.621a2.132,2.132,0,0,0,0-4.263H9.677c-2.55,0-4.131-.359-4.7-1.067-.6-.75-.6-2.513,0-5.24,2.215-9.979,7.632-22.19,20.684-28.355-.4,7.2,3.5,11.908,5.981,14.9a2.132,2.132,0,0,0,3.126.167L46.782,69.2,58.8,80.881a2.132,2.132,0,0,0,1.486.6c.038,0,.076,0,.115,0a2.131,2.131,0,0,0,1.527-.769c2.477-2.99,6.373-7.7,5.975-14.886a33.982,33.982,0,0,1,10.009,7.191,18.434,18.434,0,0,1-4.982,1.227,2.132,2.132,0,0,0-1.945,2.074A35.767,35.767,0,0,0,75.513,95.79c.029.054,1.19,2.136,3,4.69H42.919a2.132,2.132,0,1,0,0,4.263H81.9c2.57,2.84,5.6,5.257,8.475,5.257,6.935,0,14.784-14.068,14.86-14.209a35.881,35.881,0,0,0,4.529-19.472Zm-41.207-51.7H56.819c-2.217-5.792-2.637-10.569-2.712-17.58a22.04,22.04,0,0,1,14.448,17.58ZM44.234,4.263h5.595c.013,8.251.223,13.839,2.456,20.354h-10.5C44.012,18.1,44.221,12.513,44.234,4.263ZM39.957,6.869c-.07,7.1-.478,11.91-2.709,17.749H25.012A22.326,22.326,0,0,1,39.957,6.869ZM23.164,28.88h14.26c.126.1.247.115.349,0H70.4a2.788,2.788,0,0,1,0,5.575H23.164a2.788,2.788,0,1,1,0-5.575Zm1.461,12.6V38.719H68.943v2.766c0,8.127-7.873,18.178-16.849,21.51a13.491,13.491,0,0,1-10.653,0c-8.958-3.346-16.816-13.4-16.816-21.506Zm8.847,34.709c-2.206-2.88-4.331-6.662-3.31-12.151q1.41-.455,2.919-.825a28.653,28.653,0,0,0,6.871,3.768c.774.287,1.518.524,2.246.721Zm26.623,0L51.362,67.7c.719-.2,1.453-.429,2.216-.712a28.633,28.633,0,0,0,6.9-3.775q1.493.363,2.918.824c1.023,5.481-1.1,9.267-3.306,12.152Zm41.381,17.584c-2.521,4.7-8.424,11.96-11.1,11.96s-8.582-7.256-11.1-11.963A30.792,30.792,0,0,1,75.234,78.22a26.76,26.76,0,0,0,7.048-2.494,2.128,2.128,0,0,0,.242-.126,35.919,35.919,0,0,0,7.849-5.567,32.065,32.065,0,0,0,15.139,8.187A30.893,30.893,0,0,1,101.476,93.776Z" transform="translate(-0.267 0)" fill="#0467d5"/>
          <path id="Path_14857" data-name="Path 14857" d="M36.077,109.613a2.132,2.132,0,0,0,0,4.263h.012a2.132,2.132,0,0,0-.012-4.263Z" transform="translate(-3.073 -9.134)" fill="#0467d5"/>
        </g>
      </g>
    </g>
  </g>
</svg>
