<svg xmlns="http://www.w3.org/2000/svg" xmlns:xlink="http://www.w3.org/1999/xlink" width="130" height="130" viewBox="0 0 130 130">
  <defs>
    <clipPath id="clip-path">
      <rect id="Rectangle_1441" data-name="Rectangle 1441" width="110" height="110" transform="translate(771 1793)" fill="#0467d5" stroke="#3d3d3d" stroke-width="1"/>
    </clipPath>
  </defs>
  <g id="Group_19224" data-name="Group 19224" transform="translate(-771 -1759)">
    <circle id="Ellipse_32" data-name="Ellipse 32" cx="45" cy="45" r="45" transform="translate(811 1799)" fill="rgba(233,243,255,0.92)"/>
    <g id="Mask_Group_119" data-name="Mask Group 119" transform="translate(0 -34)" clip-path="url(#clip-path)">
      <g id="fx" transform="translate(755.016 1777.016)">
        <g id="Layer_1">
          <path id="Path_14854" data-name="Path 14854" d="M95.323,64.429a21.778,21.778,0,0,0,5.41.676,24.678,24.678,0,0,0,24.254-26.4,2.079,2.079,0,0,0-3.075-1.671L104.7,46.485l-6.256-3.791.157-7.32,17.864-9.809a2.08,2.08,0,0,0,.384-3.375A24.5,24.5,0,0,0,76.434,44.844a3.158,3.158,0,0,1-.9,2.9L61.208,62.065,39.719,41.106c-.039-.037-.078-.074-.12-.108a4.446,4.446,0,0,1-1.041-1.237l-.058-.308a8.518,8.518,0,0,0-2.565-5.282c-2.7-2.353-7.209-6-10.1-8.045a3.929,3.929,0,0,0-5.474.4l-2.123,2.128a3.914,3.914,0,0,0-.4,5.473c2.016,2.856,5.67,7.375,8.038,10.093a8.49,8.49,0,0,0,5.262,2.562l.333.063a4.379,4.379,0,0,1,1.233,1.036c.035.042.072.083.11.122L53.774,69.5,21.665,101.607a12.09,12.09,0,0,0,8.549,20.637h0a12,12,0,0,0,8.545-3.543L66.008,91.456a7.567,7.567,0,0,1,3.881,2.066A8.076,8.076,0,0,1,72.113,98.6a7.1,7.1,0,0,0,2.014,4.422l19.491,19.493a11.761,11.761,0,0,0,8.367,3.465h0a11.746,11.746,0,0,0,8.364-3.465l3.884-3.884a11.83,11.83,0,0,0,0-16.734l-19.5-19.49A7.153,7.153,0,0,0,90.314,80.4a8.034,8.034,0,0,1-5.076-2.224,7.587,7.587,0,0,1-2.07-3.876L92.159,65.3a3.337,3.337,0,0,1,3.164-.876ZM60.386,89.294a7.128,7.128,0,0,0,1.048.855L35.819,115.761a7.869,7.869,0,0,1-5.6,2.324h0a7.929,7.929,0,0,1-5.608-13.537L56.679,72.474l5.27,5.405L60.376,79.45a6.979,6.979,0,0,0,.01,9.844Zm29.6-4.751a2.933,2.933,0,0,1,1.817.812l19.493,19.487a7.671,7.671,0,0,1,0,10.851l-3.885,3.885a7.614,7.614,0,0,1-5.423,2.247h0a7.63,7.63,0,0,1-5.427-2.247l-19.5-19.5a2.9,2.9,0,0,1-.8-1.809,12.233,12.233,0,0,0-3.427-7.687,11.741,11.741,0,0,0-7.277-3.393q-.1-.014-.2-.017c-.088-.007-.176-.015-.268-.02a2.739,2.739,0,0,1-1.765-.807,2.809,2.809,0,0,1,0-3.958l3.022-3.02a2.079,2.079,0,0,0,.019-2.923l-8.175-8.384-.018-.02-.012-.011L35.849,45.153a7.145,7.145,0,0,0-3.561-2.388l-.386-.073a4.715,4.715,0,0,1-2.884-1.2c-2.3-2.64-5.838-7.013-7.781-9.766-.029-.04-.052-.076-.073-.108l.019-.019,2.128-2.133.016-.016c.034.021.072.046.116.077,2.736,1.935,7.2,5.545,9.758,7.781a4.742,4.742,0,0,1,1.208,2.9l.069.369a7.169,7.169,0,0,0,2.389,3.559L59.749,66.451l.006.007.012.011,8.389,8.182a2.08,2.08,0,0,0,2.923-.018L74.1,71.611a2.8,2.8,0,0,1,3.954,0,2.7,2.7,0,0,1,.81,1.77c0,.092.012.184.02.276q0,.091.016.181a11.754,11.754,0,0,0,3.4,7.279A12.185,12.185,0,0,0,89.984,84.543ZM81.86,69.723A7.113,7.113,0,0,0,81,68.67a6.96,6.96,0,0,0-9.838,0l-1.57,1.57-5.4-5.271L78.469,50.683a7.339,7.339,0,0,0,2.058-6.572,20.347,20.347,0,0,1,31.146-20.66L95.545,32.307a2.079,2.079,0,0,0-1.078,1.778l-.208,9.722a2.079,2.079,0,0,0,1,1.823l8.31,5.035a2.079,2.079,0,0,0,2.079.044L120.8,42.385a20.327,20.327,0,0,1-5.868,12.5A19.678,19.678,0,0,1,96.352,60.4a7.513,7.513,0,0,0-7.133,1.965ZM103.9,112.4a2.08,2.08,0,0,0,2.937-2.945L87.691,90.362a2.079,2.079,0,0,0-2.937,2.945Zm-73.692-7.72a5.1,5.1,0,1,0,5.1,5.1A5.109,5.109,0,0,0,30.209,104.681Zm0,6.048a.944.944,0,1,1,.943-.943A.944.944,0,0,1,30.209,110.728Z" fill="#0467d5"/>
        </g>
      </g>
    </g>
  </g>
</svg>
